<svg xmlns="http://www.w3.org/2000/svg" id="color-shape" class="bg-shape" preserveAspectRatio="xMinYMin meet" viewBox="0 0 199.99 100"><defs><linearGradient id="linear-gradient" x1="101.74" x2="185.06" y1="41.84" y2="41.84" gradientUnits="userSpaceOnUse"><stop offset="0" stop-color="#fff" stop-opacity="0"/><stop offset=".06" stop-color="#fff" stop-opacity=".28"/><stop offset=".14" stop-color="#fff" stop-opacity=".65"/><stop offset=".17" stop-color="#fff" stop-opacity=".8"/><stop offset=".22" stop-color="#fff" stop-opacity=".85"/><stop offset=".31" stop-color="#fff" stop-opacity=".92"/><stop offset=".42" stop-color="#fff" stop-opacity=".97"/><stop offset=".57" stop-color="#fff" stop-opacity=".99"/><stop offset="1" stop-color="#fff"/></linearGradient></defs><g><g><path fill="#162e66" d="M151.93,36.63,53.47,96.82q-8.67,5.3-17.52,1.77T23.6,84.89L1,19.28C.63,18.07,0,14.8,0,14.8V0H200V7.24L162.61,30.09Z"/><path fill="#fff" d="M143.4,41.84l5.36-30.37A13.72,13.72,0,0,1,153.3,3.4,12,12,0,0,1,161.47,0H200V7.24Z" opacity=".2" style="mix-blend-mode:overlay"/><path fill="url(#linear-gradient)" d="M101.74,67.3s.78-8.66.88-9.29l5-30.17a13.72,13.72,0,0,1,4.55-8.07,12,12,0,0,1,8.17-3.4h64.69Z" opacity=".3" style="mix-blend-mode:overlay"/></g></g></svg>