<svg xmlns="http://www.w3.org/2000/svg" xmlns:xlink="http://www.w3.org/1999/xlink" style="enable-background:new 0 0 1921 908" id="Layer_1" x="0" y="0" version="1.1" viewBox="0 0 1921 908" xml:space="preserve"><style type="text/css">.st0{fill:#fff}.st1{fill:url(#Polygon-Copy_2_);enable-background:new}.st1,.st2{opacity:.7397}.st2,.st3{enable-background:new}.st2{fill:url(#Polygon-Copy-2_2_)}.st3{opacity:.3158;fill:url(#Polygon-Copy-3_1_)}.st4{fill:url(#Fill-2_1_)}.st5{opacity:.207;fill:url(#Rectangle-Copy-17_1_);enable-background:new}.st6{opacity:.4412}.st7{fill:url(#Rectangle_3_)}.st8{fill:url(#Rectangle-Copy_1_)}.st9{fill:url(#Rectangle-Copy-16_1_)}.st10{fill:url(#Rectangle-Copy-191_1_)}.st11{fill:url(#Rectangle-Copy-192_1_)}.st12{fill:url(#Rectangle-Copy-195_1_)}.st13{fill:#fff}.st13,.st14,.st15{opacity:.5;enable-background:new}.st14{fill:url(#Rectangle-Copy-201_1_)}.st15{fill:url(#Rectangle-Copy-202_1_)}.st16{opacity:.2761;fill:url(#Rectangle-Copy-203_1_)}.st16,.st17,.st18,.st19{enable-background:new}.st17,.st18{opacity:.1829;fill:#fff}.st18{opacity:.1872}.st19{opacity:.207;fill:url(#Rectangle_4_)}.st20{opacity:.1529}.st21{fill:none}.st22{opacity:.1863}.st23{opacity:.2036}.st24{fill:#09cbf9}.st25{fill:#ffcf26}.st26{fill:#ee80c6}.st27{fill:#5d4ee6}.st28{fill:#b8e986}.st29{fill:#ff6492}.st30{opacity:.7043}.st31{fill:url(#Combined-Shape_3_)}.st32{opacity:.489}.st33{fill:url(#Combined-Shape_4_)}.st34{opacity:.7059}.st35{opacity:.5}.st36{opacity:0}.st37{fill:#fdcde7}.st38{opacity:.1667}.st39{opacity:.3333}.st40{opacity:.6667}.st41{opacity:.8333}.st42{opacity:.7}.st43{fill:#a9fffe}.st44{fill:#a8fefd}.st45{fill:#a6fcfb}.st46{fill:#a5fbfa}.st47{fill:#a4faf9}.st48{fill:#a2f8f7}.st49{fill:#a1f7f6}.st50{opacity:.8}.st51{fill:#f1f5fa}.st52{opacity:.8333}.st52,.st53,.st54,.st55,.st56{fill:#f1f5fa;enable-background:new}.st53{opacity:.6667}.st54{opacity:.5}.st55{opacity:.3333}.st56{opacity:.1667}.st57{fill:#f1f5fa;fill-opacity:0}.st58{opacity:.2}.st59{fill:#162e66}.st60{fill:#2afbfe}.st61{fill:#8fedff}.st62{fill:#66d4e2}.st63{fill:#4bbcc4}.st64{fill:#53d5ea}.st65{fill:#6afce5}.st66,.st67{opacity:.1;enable-background:new}.st67{opacity:.5;fill:#d4fcf4}.st68{fill:#0edbfc}.st69{fill:#36e1fc}.st70{fill:#5de6fc}.st71{fill:#85ecfd}.st72{fill:#adf2fd}.st73{fill:#d4f7fd}.st74{fill:#fcfdfd}.st75{enable-background:new}.st76{fill:#fff;fill-opacity:0}.st77{opacity:.1667;fill:#dbfeff;enable-background:new}.st78{opacity:.3333;fill:#b8feff}.st78,.st79,.st80,.st81{enable-background:new}.st79{opacity:.5;fill:#95fdff}.st80{opacity:.6667;fill:#71fcfe}.st81{opacity:.8333;fill:#4efcfe}.st82{fill:#786bea}.st83{fill:#9288ee}.st84{fill:#ada6f2}.st85{fill:#c7c3f5}.st86{fill:#e1e0f9}.st87{fill:#dcdcdc}.st88{fill:#c5f9ff}.st89{fill:#e6a376}.st90{fill:#460689}.st91{fill:#d38f62}.st92{fill:#1e292e}.st93{fill:#12191c}.st94{fill:#efb185}.st95{fill:#37007f}.st96{fill:#43008d}.st97{fill:#5d0ca6}.st98{fill:#8c2ddf}.st99{opacity:.1667;fill:#fcfefd;enable-background:new}.st100{opacity:.3333;fill:#f9fdfc}.st100,.st101,.st102,.st103{enable-background:new}.st101{opacity:.5;fill:#f6fcfa}.st102{opacity:.6667;fill:#f3fbf8}.st103{opacity:.8333;fill:#f0faf7}.st104{fill:url(#Oval_4_)}.st105{fill:url(#Oval_5_)}.st106,.st107{opacity:.2;enable-background:new}.st107{fill:#fff}.st108{fill:url(#Path_4_)}.st109{fill:url(#Path_5_)}.st110{fill:#a3a3a3}.st111{fill:#162e66;fill-opacity:.651}.st112{fill:url(#Path_6_)}.st113{fill:url(#Oval_6_)}.st114,.st115,.st116{opacity:.2;fill:#ff6492;enable-background:new}.st115,.st116{opacity:.7397;fill:url(#Polygon-Copy-2_3_)}.st116{fill:url(#Polygon-Copy_3_)}.st117{fill:url(#Path_7_)}.st118{fill:#5f9994}.st119{opacity:.5;fill:#f3ffff;enable-background:new}</style><g><polygon id="path-61" points="1732 377.5 1749.3 377.5 1749.3 394.6 1732 394.6" class="st0"/></g><title>Illustration 02</title><desc>Created with Sketch.</desc><g id="Home-Page-Design---WeDevs-U3"><g id="Illustration-02" transform="translate(-229.000000, -65.000000)"><linearGradient id="Polygon-Copy_2_" x1="1755.95" x2="1756.437" y1="-1.144" y2="-.231" gradientTransform="matrix(109 0 0 109 -189663 958)" gradientUnits="userSpaceOnUse"><stop style="stop-color:#ffd3a5" offset="0"/><stop style="stop-color:#fd6585" offset="1"/></linearGradient><path id="Polygon-Copy" d="M1760.1,835.6l36.9,9.9c6.1,1.6,10.8,6.4,12.4,12.4l9.9,36.9c1.6,6.1-0.1,12.5-4.5,17 l-27,27c-4.4,4.4-10.9,6.2-17,4.5l-36.9-9.9c-6.1-1.6-10.8-6.4-12.4-12.4l-9.9-36.9c-1.6-6.1,0.1-12.5,4.5-17l27-27 C1747.6,835.7,1754.1,834,1760.1,835.6z" class="st1"/><linearGradient id="Polygon-Copy-2_2_" x1="1738.867" x2="1738.683" y1="-1.755" y2="-2.63" gradientTransform="matrix(45 0 0 45 -76371 1044)" gradientUnits="userSpaceOnUse"><stop style="stop-color:#a75bff" offset="0"/><stop style="stop-color:#e2cbff" offset="1"/></linearGradient><path id="Polygon-Copy-2" d="M1870.6,921.2l16.6,4.5c2,0.5,3.6,2.1,4.1,4.1l4.5,16.6c0.5,2,0,4.2-1.5,5.7l-12.2,12.2 c-1.5,1.5-3.6,2.1-5.7,1.5l-16.6-4.5c-2-0.5-3.6-2.1-4.1-4.1l-4.5-16.6c-0.5-2,0-4.2,1.5-5.7l12.2-12.2 C1866.4,921.2,1868.5,920.7,1870.6,921.2z" class="st2"/><linearGradient id="Polygon-Copy-3_1_" x1="1710.029" x2="1710.529" y1="-5.449" y2="-4.449" gradientTransform="matrix(23 0 0 23 -37481 969)" gradientUnits="userSpaceOnUse"><stop style="stop-color:#81fbb8" offset="0"/><stop style="stop-color:#28c76f" offset="1"/></linearGradient><path id="Polygon-Copy-3" d="M1855.3,846.1l8,2.1c1.2,0.3,2.2,1.3,2.5,2.5l2.1,8c0.3,1.2,0,2.5-0.9,3.4l-5.8,5.8 c-0.9,0.9-2.2,1.2-3.4,0.9l-8-2.1c-1.2-0.3-2.2-1.3-2.5-2.5l-2.1-8c-0.3-1.2,0-2.5,0.9-3.4l5.8-5.8 C1852.8,846.1,1854.1,845.8,1855.3,846.1z" class="st3"/><linearGradient id="Fill-2_1_" x1="1768.238" x2="1769.071" y1="2.342" y2="2.342" gradientTransform="matrix(-16.126 -923.8593 -727.8892 12.7054 32029.6465 1634423.125)" gradientUnits="userSpaceOnUse"><stop style="stop-color:#162e66" offset="0"/><stop style="stop-color:#5d4ee6" offset=".371"/><stop style="stop-color:#0092ff;stop-opacity:0" offset="1"/></linearGradient><path id="Fill-2" d="M1997.8,904.3c-73.1-51.2-104.8-165.6-218.5-136.9c-37.1,9.4-80.1,9.4-103.5-10.7 c-23.4-20.1-18.9-59.8-57.7-98.9c-38.7-39.1-180-22.2-180-295.5c0-182.2,240.6-299.9,721.8-353c0,0,14,917.1,14,917.6 c0,0,0,0,0,0.1c0.2,10.4-64.9,5.8-71.8,5.8C2064.2,932.4,2029.5,926.5,1997.8,904.3z" class="st4"/><linearGradient id="Rectangle-Copy-17_1_" x1="1771.473" x2="1771.473" y1="-.508" y2="-1.008" gradientTransform="matrix(-450 0 0 122 799192 572)" gradientUnits="userSpaceOnUse"><stop style="stop-color:#c1e3ff;stop-opacity:0" offset="0"/><stop style="stop-color:#001dff" offset="1"/></linearGradient><path id="Rectangle-Copy-17" d="M2254,532c-86.8-51.7-158.8-79.2-215.8-82.5c-85.6-4.9-149.4,27.5-210.3,63.5 c-40.7,24-29.3,43.4,34,58H2254V532z" class="st5"/><g id="Group-8" class="st6" transform="translate(1486.000000, 218.000000)"><linearGradient id="Rectangle_3_" x1="-1215.664" x2="-1215.664" y1="-.435" y2=".544" gradientTransform="matrix(110 0 0 283 133916 116)" gradientUnits="userSpaceOnUse"><stop style="stop-color:#007cf5" offset="0"/><stop style="stop-color:#f5f7f9;stop-opacity:0" offset="1"/></linearGradient><path id="Rectangle" d="M143-7h100c2.8,0,5,2.2,5,5v278H138V-2C138-4.8,140.2-7,143-7z" class="st7"/><linearGradient id="Rectangle-Copy_1_" x1="-1222.614" x2="-1222.614" y1="-.435" y2=".544" gradientTransform="matrix(70 0 0 283 85673 150)" gradientUnits="userSpaceOnUse"><stop style="stop-color:#007cf5" offset="0"/><stop style="stop-color:#f5f7f9;stop-opacity:0" offset="1"/></linearGradient><path id="Rectangle-Copy" d="M60,27h60c2.8,0,5,2.2,5,5v278H55V32C55,29.2,57.2,27,60,27z" class="st8"/><linearGradient id="Rectangle-Copy-16_1_" x1="-1222.614" x2="-1222.614" y1="-1.23" y2="-.251" gradientTransform="matrix(70 0 0 100 85590 199)" gradientUnits="userSpaceOnUse"><stop style="stop-color:#007cf5" offset="0"/><stop style="stop-color:#f5f7f9;stop-opacity:0" offset="1"/></linearGradient><path id="Rectangle-Copy-16" d="M-23,76h60c2.8,0,5,2.2,5,5v95h-70V81C-28,78.2-25.8,76-23,76z" class="st9"/><linearGradient id="Rectangle-Copy-191_1_" x1="-1218.203" x2="-1218.203" y1="-.537" y2=".442" gradientTransform="matrix(91 0 0 229 111134 170)" gradientUnits="userSpaceOnUse"><stop style="stop-color:#007cf5" offset="0"/><stop style="stop-color:#f5f7f9;stop-opacity:0" offset="1"/></linearGradient><path id="Rectangle-Copy-191" d="M237,47h81c2.8,0,5,2.2,5,5v224h-91V52C232,49.2,234.2,47,237,47z" class="st10"/><linearGradient id="Rectangle-Copy-192_1_" x1="-1222.614" x2="-1222.614" y1="-.715" y2=".264" gradientTransform="matrix(70 0 0 172 85923 226)" gradientUnits="userSpaceOnUse"><stop style="stop-color:#007cf5" offset="0"/><stop style="stop-color:#f5f7f9;stop-opacity:0" offset="1"/></linearGradient><path id="Rectangle-Copy-192" d="M310,103h60c2.8,0,5,2.2,5,5v167h-70V108C305,105.2,307.2,103,310,103z" class="st11"/><linearGradient id="Rectangle-Copy-195_1_" x1="-1224.738" x2="-1224.738" y1="-1.757" y2="-.778" gradientTransform="matrix(63 0 0 70 77536 319)" gradientUnits="userSpaceOnUse"><stop style="stop-color:#007cf5" offset="0"/><stop style="stop-color:#f5f7f9;stop-opacity:0" offset="1"/></linearGradient><path id="Rectangle-Copy-195" d="M351,196h53c2.8,0,5,2.2,5,5v65c-11.1-5.1-21.1-9.4-30-13s-19.9-7.3-33-11.2V201 C346,198.2,348.2,196,351,196z" class="st12"/><path id="Rectangle_1_" d="M170,18h8c2.8,0,5,2.2,5,5v9c0,2.8-2.2,5-5,5h-8c-2.8,0-5-2.2-5-5v-9 C165,20.2,167.2,18,170,18z" class="st13"/><linearGradient id="Rectangle-Copy-201_1_" x1="-1240.162" x2="-1239.162" y1="-11.8" y2="-11.8" gradientTransform="matrix(37 0 0 10 46144 194)" gradientUnits="userSpaceOnUse"><stop style="stop-color:#fff" offset="0"/><stop style="stop-color:#fff;stop-opacity:0" offset="1"/></linearGradient><path id="Rectangle-Copy-201" d="M263,71h27c2.8,0,5,2.2,5,5l0,0c0,2.8-2.2,5-5,5h-27c-2.8,0-5-2.2-5-5l0,0 C258,73.2,260.2,71,263,71z" class="st14"/><linearGradient id="Rectangle-Copy-202_1_" x1="-1240.162" x2="-1239.162" y1="-11.8" y2="-11.8" gradientTransform="matrix(37 0 0 10 46144 214)" gradientUnits="userSpaceOnUse"><stop style="stop-color:#fff" offset="0"/><stop style="stop-color:#fff;stop-opacity:0" offset="1"/></linearGradient><path id="Rectangle-Copy-202" d="M263,91h27c2.8,0,5,2.2,5,5l0,0c0,2.8-2.2,5-5,5h-27c-2.8,0-5-2.2-5-5l0,0 C258,93.2,260.2,91,263,91z" class="st15"/><linearGradient id="Rectangle-Copy-203_1_" x1="-1240.162" x2="-1239.162" y1="-11.8" y2="-11.8" gradientTransform="matrix(37 0 0 10 46144 234)" gradientUnits="userSpaceOnUse"><stop style="stop-color:#fff" offset="0"/><stop style="stop-color:#fff;stop-opacity:0" offset="1"/></linearGradient><path id="Rectangle-Copy-203" d="M263,111h27c2.8,0,5,2.2,5,5l0,0c0,2.8-2.2,5-5,5h-27c-2.8,0-5-2.2-5-5l0,0 C258,113.2,260.2,111,263,111z" class="st16"/><path id="Rectangle-Copy-197" d="M170,55h8c2.8,0,5,2.2,5,5v8c0,2.8-2.2,5-5,5h-8c-2.8,0-5-2.2-5-5v-8 C165,57.2,167.2,55,170,55z" class="st13"/><path id="Rectangle-Copy-196" d="M204,18h8c2.8,0,5,2.2,5,5v9c0,2.8-2.2,5-5,5h-8c-2.8,0-5-2.2-5-5v-9 C199,20.2,201.2,18,204,18z" class="st13"/><path id="Rectangle-Copy-198" d="M204,55h8c2.8,0,5,2.2,5,5v8c0,2.8-2.2,5-5,5h-8c-2.8,0-5-2.2-5-5v-8 C199,57.2,201.2,55,204,55z" class="st17"/><path id="Rectangle-Copy-200" d="M170,94h8c2.8,0,5,2.2,5,5v8c0,2.8-2.2,5-5,5h-8c-2.8,0-5-2.2-5-5v-8 C165,96.2,167.2,94,170,94z" class="st18"/><path id="Rectangle-Copy-199" d="M204,94h8c2.8,0,5,2.2,5,5v8c0,2.8-2.2,5-5,5h-8c-2.8,0-5-2.2-5-5v-8 C199,96.2,201.2,94,204,94z" class="st18"/></g><linearGradient id="Rectangle_4_" x1="1771.039" x2="1771.039" y1="-.564" y2="-1.034" gradientTransform="matrix(-527 0 0 101.9999 935196 573.9814)" gradientUnits="userSpaceOnUse"><stop style="stop-color:#c1e3ff;stop-opacity:0" offset="0"/><stop style="stop-color:#000c66" offset="1"/></linearGradient><path id="Rectangle_2_" d="M1984,526.9c-77.6,0-90.9-59.3-172.5-72c-54.4-8.5-126.6-3.5-216.5,15v67.9l527,15.1 C2081.7,535.6,2035.7,526.9,1984,526.9z" class="st19"/><g id="Oval" class="st20"><g><circle id="path-16_2_" cx="1441" cy="628" r="31"/></g><g><circle id="path-16_1_" cx="1441" cy="628" r="31" class="st21"/></g></g><g id="Oval-Copy"><g><path id="path-19_1_" d="M1923,178c17.1,0,31-15.4,31-32s-13.9-30-31-30s-31,13.4-31,30S1905.9,178,1923,178z" class="st21"/></g></g><g id="Oval-Copy-12" class="st22"><g><circle id="path-21_1_" cx="1252.5" cy="171.5" r="22.5" class="st21"/></g></g><g id="Oval-Copy-13"><g><path id="path-24_3_" d="M1429.5,161" class="st21"/><path id="path-24_1_" d="M1429.5,170" class="st21"/></g></g><g id="Oval-Copy-15" class="st23"><g><circle id="path-26_2_" cx="1282" cy="243" r="9"/></g><g><circle id="path-26_1_" cx="1282" cy="243" r="9" class="st24"/></g></g><g id="Oval-Copy-36"><g><circle id="path-32_2_" cx="1573.5" cy="219.5" r="1.5"/></g><g><circle id="path-32_1_" cx="1573.5" cy="219.5" r="1.5" class="st24"/></g></g><g id="Oval-Copy-46"><g><circle id="path-34_2_" cx="1811.5" cy="235.5" r="1.5"/></g><g><circle id="path-34_1_" cx="1811.5" cy="235.5" r="1.5" class="st25"/></g></g><g id="Oval-Copy-47"><g><circle id="path-36_2_" cx="1872.5" cy="287.5" r="1.5"/></g><g><circle id="path-36_1_" cx="1872.5" cy="287.5" r="1.5" class="st26"/></g></g><g id="Oval-Copy-21_1_"><g><circle id="path-43_2_" cx="1496.8" cy="164.8" r="6.8" class="st27"/></g><g><circle id="path-43_1_" cx="1493.5" cy="161.5" r="3.5" class="st21"/></g></g><g id="Oval-Copy-20"><g transform="translate(1700.060267, 183.088132) rotate(-28.000000) translate(-1700.060267, -183.088132)"><path id="path-45_2_" d="M1678.7,165.3c0.8,0,1.4-0.8,1.4-1.6s-0.7-1.5-1.5-1.5s-1.5,0.7-1.5,1.5S1677.9,165.3,1678.7,165.3z"/></g><g transform="translate(1700.060267, 183.088132) rotate(-28.000000) translate(-1700.060267, -183.088132)"><path id="path-45_1_" d="M1678.7,165.3c0.8,0,1.4-0.8,1.4-1.6s-0.7-1.5-1.5-1.5s-1.5,0.7-1.5,1.5 S1677.9,165.3,1678.7,165.3z" class="st28"/></g></g><g id="Oval-Copy-18"><g transform="translate(1608.968320, 178.977633) rotate(24.000000) translate(-1608.968320, -178.977633)"><path id="path-49_2_" d="M1580.4,187c1.7,0,3.1-1.4,3.1-3s-1.3-3-3-3s-3,1.3-3,3S1578.8,187,1580.4,187z"/></g><g transform="translate(1608.968320, 178.977633) rotate(24.000000) translate(-1608.968320, -178.977633)"><path id="path-49_1_" d="M1580.4,187c1.7,0,3.1-1.4,3.1-3s-1.3-3-3-3s-3,1.3-3,3S1578.8,187,1580.4,187z" class="st0"/></g></g><g id="Path"><g><path id="path-51_2_" d="M1382.8,206.8c0.5-0.5,0.5-0.9,0.3-1.4c-0.3-0.5-0.5-0.9-1.3-0.9l-4.8-0.7 c-0.3,0-0.5-0.2-0.5-0.2l-2.3-4.2c-0.3-0.5-0.8-0.7-1.3-0.7c-0.5,0-1,0.2-1.3,0.7l-2.3,4.2c0,0.2-0.3,0.2-0.5,0.2l-4.8,0.7 c-0.5,0-1,0.5-1.3,0.9c-0.3,0.5,0,1.2,0.3,1.4l3.6,3.3c0.3,0.2,0.3,0.2,0.3,0.5l-0.8,4.7c0,0.5,0,0.7,0.3,1.2 c0.5,0.5,1.3,0.7,1.8,0.2l4.3-2.4c0.3,0,0.5,0,0.5,0l4.3,2.4c0.3,0,0.5,0.2,0.8,0.2c0.5,0,0.8-0.2,1-0.5 c0.3-0.2,0.5-0.7,0.3-1.2l-0.8-4.7c0-0.2,0-0.5,0.3-0.5L1382.8,206.8z" class="st29"/></g><g><path id="path-51_1_" d="M1397.8,203.6c0.2-0.2,0.2-0.4,0.1-0.6c-0.1-0.2-0.2-0.4-0.5-0.4l-1.9-0.3 c-0.1,0-0.2-0.1-0.2-0.1l-0.9-1.8c-0.1-0.2-0.3-0.3-0.5-0.3s-0.4,0.1-0.5,0.3l-0.9,1.8c0,0.1-0.1,0.1-0.2,0.1l-1.9,0.3 c-0.2,0-0.4,0.2-0.5,0.4s0,0.5,0.1,0.6l1.4,1.4c0.1,0.1,0.1,0.1,0.1,0.2l-0.3,2c0,0.2,0,0.3,0.1,0.5c0.2,0.2,0.5,0.3,0.7,0.1 l1.7-1c0.1,0,0.2,0,0.2,0l1.7,1c0.1,0,0.2,0.1,0.3,0.1c0.2,0,0.3-0.1,0.4-0.2c0.1-0.1,0.2-0.3,0.1-0.5l-0.3-2 c0-0.1,0-0.2,0.1-0.2L1397.8,203.6z" class="st21"/></g></g><g id="Path-Copy-2"><g><path id="path-56_2_" d="M1894.7,231.4c0.2-0.2,0.3-0.6,0.2-0.9c-0.1-0.3-0.4-0.6-0.7-0.6l-2.9-0.4c-0.1,0-0.2-0.1-0.3-0.2 l-1.3-2.7c-0.1-0.3-0.4-0.5-0.8-0.5c-0.3,0-0.6,0.2-0.8,0.5l-1.3,2.7c-0.1,0.1-0.2,0.2-0.3,0.2l-2.9,0.4c-0.3,0-0.6,0.3-0.7,0.6 s0,0.7,0.2,0.9l2.1,2.1c0.1,0.1,0.1,0.2,0.1,0.4l-0.5,3c0,0.3,0,0.5,0.2,0.7c0.3,0.3,0.7,0.4,1.1,0.2l2.6-1.4 c0.1-0.1,0.2-0.1,0.4,0l2.6,1.4c0.1,0.1,0.3,0.1,0.4,0.1c0.3,0,0.5-0.1,0.7-0.3s0.2-0.5,0.2-0.7l-0.5-3c0-0.1,0-0.3,0.1-0.4 L1894.7,231.4z"/></g><g><path id="path-56_1_" d="M1894.7,231.4c0.2-0.2,0.3-0.6,0.2-0.9c-0.1-0.3-0.4-0.6-0.7-0.6l-2.9-0.4 c-0.1,0-0.2-0.1-0.3-0.2l-1.3-2.7c-0.1-0.3-0.4-0.5-0.8-0.5c-0.3,0-0.6,0.2-0.8,0.5l-1.3,2.7c-0.1,0.1-0.2,0.2-0.3,0.2l-2.9,0.4 c-0.3,0-0.6,0.3-0.7,0.6s0,0.7,0.2,0.9l2.1,2.1c0.1,0.1,0.1,0.2,0.1,0.4l-0.5,3c0,0.3,0,0.5,0.2,0.7c0.3,0.3,0.7,0.4,1.1,0.2 l2.6-1.4c0.1-0.1,0.2-0.1,0.4,0l2.6,1.4c0.1,0.1,0.3,0.1,0.4,0.1c0.3,0,0.5-0.1,0.7-0.3s0.2-0.5,0.2-0.7l-0.5-3 c0-0.1,0-0.3,0.1-0.4L1894.7,231.4z" class="st24"/></g></g><g id="Path-Copy-3"><g><path id="path-58_2_" d="M1776.9,162.7c0.1-0.1,0.2-0.3,0.1-0.5s-0.2-0.3-0.3-0.3l-1.5-0.2c-0.1,0-0.1,0-0.1-0.1l-0.6-1.4 c-0.1-0.2-0.2-0.3-0.4-0.3c-0.2,0-0.3,0.1-0.4,0.3l-0.6,1.4c0,0.1-0.1,0.1-0.1,0.1l-1.5,0.2c-0.2,0-0.3,0.1-0.3,0.3 c-0.1,0.2,0,0.3,0.1,0.5l1.1,1.1c0,0,0.1,0.1,0.1,0.2l-0.2,1.5c0,0.1,0,0.3,0.1,0.4c0.1,0.2,0.4,0.2,0.5,0.1l1.3-0.7 c0.1,0,0.1,0,0.2,0l1.3,0.7c0.1,0,0.1,0.1,0.2,0.1s0.2-0.1,0.3-0.2c0.1-0.1,0.1-0.2,0.1-0.4l-0.2-1.5c0-0.1,0-0.1,0.1-0.2 L1776.9,162.7z"/></g><g><path id="path-58_1_" d="M1776.9,162.7c0.1-0.1,0.2-0.3,0.1-0.5s-0.2-0.3-0.3-0.3l-1.5-0.2c-0.1,0-0.1,0-0.1-0.1 l-0.6-1.4c-0.1-0.2-0.2-0.3-0.4-0.3c-0.2,0-0.3,0.1-0.4,0.3l-0.6,1.4c0,0.1-0.1,0.1-0.1,0.1l-1.5,0.2c-0.2,0-0.3,0.1-0.3,0.3 c-0.1,0.2,0,0.3,0.1,0.5l1.1,1.1c0,0,0.1,0.1,0.1,0.2l-0.2,1.5c0,0.1,0,0.3,0.1,0.4c0.1,0.2,0.4,0.2,0.5,0.1l1.3-0.7 c0.1,0,0.1,0,0.2,0l1.3,0.7c0.1,0,0.1,0.1,0.2,0.1s0.2-0.1,0.3-0.2c0.1-0.1,0.1-0.2,0.1-0.4l-0.2-1.5c0-0.1,0-0.1,0.1-0.2 L1776.9,162.7z" class="st25"/></g></g><g id="Group-18" class="st30" transform="translate(1961.000000, 433.000000)"><linearGradient id="Combined-Shape_3_" x1="-2230.819" x2="-2230.819" y1="-4.617" y2="-3.617" gradientTransform="matrix(17.305 0 0 26.642 38585.0195 115.9915)" gradientUnits="userSpaceOnUse"><stop style="stop-color:#0034ff" offset="0"/><stop style="stop-color:#0059ff;stop-opacity:.3218" offset="1"/></linearGradient><path id="Combined-Shape_1_" d="M-23.9-1.6c-0.2-0.5-0.2-1.1-0.2-1.7c0.2-2.3,2.3-3.9,4.6-3.7 c2.2,0.2,3.8,2,3.8,4.2c1.8,0.8,3.1,2.6,3.1,4.7c0,1-0.3,2-0.9,2.8c1.8,1.6,2.9,3.8,2.9,6.4c0,4.7-3.9,8.6-8.7,8.6 s-8.7-3.8-8.7-8.6c0-2.2,0.8-4.2,2.2-5.7c-0.6-0.8-1-1.7-1-2.8C-26.8,0.7-25.6-0.9-23.9-1.6z" class="st31"/></g><g id="Group-18-Copy" class="st32" transform="translate(2041.000000, 439.000000)"><linearGradient id="Combined-Shape_4_" x1="-2452.676" x2="-2452.676" y1="-8.419" y2="-7.419" gradientTransform="matrix(9.6139 0 0 14.6101 23556.5801 116.0095)" gradientUnits="userSpaceOnUse"><stop style="stop-color:#0034ff" offset="0"/><stop style="stop-color:#0059ff;stop-opacity:.3218" offset="1"/></linearGradient><path id="Combined-Shape_2_" d="M-25.7-4c-0.1-0.3-0.1-0.6-0.1-0.9c0.1-1.2,1.3-2.2,2.5-2c1.2,0.1,2.1,1.1,2.1,2.3 c1,0.4,1.7,1.4,1.7,2.6c0,0.6-0.2,1.1-0.5,1.5c1,0.9,1.6,2.1,1.6,3.5c0,2.6-2.2,4.7-4.8,4.7C-25.9,7.7-28,5.6-28,3 c0-1.2,0.5-2.3,1.2-3.1c-0.4-0.4-0.6-1-0.6-1.5C-27.3-2.8-26.7-3.7-25.7-4z" class="st33"/></g><g id="Oval-Copy-16" class="st34"><g><circle id="path-64_1_" cx="2006.5" cy="265.5" r="22.5" class="st21"/></g></g><g id="Oval-Copy-23" class="st34"><g><circle id="path-66_2_" cx="1929.5" cy="304.5" r="6.5"/></g><g><circle id="path-66_1_" cx="1929.5" cy="304.5" r="6.5" class="st21"/></g></g><g id="Oval-Copy-10" class="st35"><g><circle id="path-68_1_" cx="365" cy="233" r="10" class="st21"/></g></g></g></g><g><polygon id="path-61_1_" points="1784 482.5 1801.3 482.5 1801.3 499.6 1784 499.6" class="st0"/></g><g><g class="st35"><g class="st36"><g><path d="M1899.2,497.9l-5.7,3.3c-0.4,0.2-0.8,0.2-1.2,0l-5.8-3.3c-0.8-0.4-0.8-1.6,0-2l5.7-3.3 c0.4-0.2,0.8-0.2,1.2,0l5.8,3.3C1900,496.3,1900,497.4,1899.2,497.9z" class="st37"/></g></g><g class="st38"><g><path d="M1899.2,490.1l-5.7,3.3c-0.4,0.2-0.8,0.2-1.2,0l-5.8-3.3c-0.8-0.4-0.8-1.6,0-2l5.7-3.3 c0.4-0.2,0.8-0.2,1.2,0l5.8,3.3C1900,488.5,1900,489.6,1899.2,490.1z" class="st37"/></g></g><g class="st39"><g><path d="M1899.2,482.2l-5.7,3.3c-0.4,0.2-0.8,0.2-1.2,0l-5.8-3.3c-0.8-0.4-0.8-1.6,0-2l5.7-3.3 c0.4-0.2,0.8-0.2,1.2,0l5.8,3.3C1900,480.6,1900,481.8,1899.2,482.2z" class="st37"/></g></g><g class="st35"><g><path d="M1899.3,474.4l-5.7,3.3c-0.4,0.2-0.8,0.2-1.2,0l-5.8-3.3c-0.8-0.4-0.8-1.6,0-2l5.7-3.3 c0.4-0.2,0.8-0.2,1.2,0l5.8,3.3C1900,472.8,1900,473.9,1899.3,474.4z" class="st37"/></g></g><g class="st40"><g><path d="M1899.3,466.5l-5.7,3.3c-0.4,0.2-0.8,0.2-1.2,0l-5.8-3.3c-0.8-0.4-0.8-1.6,0-2l5.7-3.3 c0.4-0.2,0.8-0.2,1.2,0l5.8,3.3C1900,465,1900,466.1,1899.3,466.5z" class="st37"/></g></g><g class="st41"><g><path d="M1899.3,458.7l-5.7,3.3c-0.4,0.2-0.8,0.2-1.2,0l-5.8-3.3c-0.8-0.4-0.8-1.6,0-2l5.7-3.3 c0.4-0.2,0.8-0.2,1.2,0l5.8,3.3C1900,457.1,1900,458.3,1899.3,458.7z" class="st37"/></g></g><g><g><path d="M1899.3,450.9l-5.7,3.3c-0.4,0.2-0.8,0.2-1.2,0l-5.8-3.3c-0.8-0.4-0.8-1.6,0-2l5.7-3.3 c0.4-0.2,0.8-0.2,1.2,0l5.8,3.3C1900,449.3,1900,450.4,1899.3,450.9z" class="st37"/></g></g></g><g><g><path d="M1899.3,450.9l-5.7,3.3c-0.4,0.2-0.8,0.2-1.2,0l-5.8-3.3c-0.8-0.4-0.8-1.6,0-2l5.7-3.3 c0.4-0.2,0.8-0.2,1.2,0l5.8,3.3C1900,449.3,1900,450.4,1899.3,450.9z" class="st37"/></g></g></g><g><g class="st35"><g class="st36"><g><path d="M1576.6,383.4l-5.7,3.3c-0.4,0.2-0.8,0.2-1.2,0l-5.8-3.3c-0.8-0.4-0.8-1.6,0-2l5.7-3.3 c0.4-0.2,0.8-0.2,1.2,0l5.8,3.3C1577.4,381.9,1577.4,383,1576.6,383.4z" class="st37"/></g></g><g class="st38"><g><path d="M1576.6,375.6l-5.7,3.3c-0.4,0.2-0.8,0.2-1.2,0l-5.8-3.3c-0.8-0.4-0.8-1.6,0-2l5.7-3.3 c0.4-0.2,0.8-0.2,1.2,0l5.8,3.3C1577.4,374,1577.4,375.2,1576.6,375.6z" class="st37"/></g></g><g class="st39"><g><path d="M1576.6,367.8l-5.7,3.3c-0.4,0.2-0.8,0.2-1.2,0l-5.8-3.3c-0.8-0.4-0.8-1.6,0-2l5.7-3.3 c0.4-0.2,0.8-0.2,1.2,0l5.8,3.3C1577.4,366.2,1577.4,367.3,1576.6,367.8z" class="st37"/></g></g><g class="st35"><g><path d="M1576.6,359.9l-5.7,3.3c-0.4,0.2-0.8,0.2-1.2,0l-5.8-3.3c-0.8-0.4-0.8-1.6,0-2l5.7-3.3 c0.4-0.2,0.8-0.2,1.2,0l5.8,3.3C1577.4,358.4,1577.4,359.5,1576.6,359.9z" class="st37"/></g></g><g class="st40"><g><path d="M1576.6,352.1l-5.7,3.3c-0.4,0.2-0.8,0.2-1.2,0l-5.8-3.3c-0.8-0.4-0.8-1.6,0-2l5.7-3.3 c0.4-0.2,0.8-0.2,1.2,0l5.8,3.3C1577.4,350.5,1577.4,351.6,1576.6,352.1z" class="st37"/></g></g><g class="st41"><g><path d="M1576.6,344.3l-5.7,3.3c-0.4,0.2-0.8,0.2-1.2,0l-5.8-3.3c-0.8-0.4-0.8-1.6,0-2l5.7-3.3 c0.4-0.2,0.8-0.2,1.2,0l5.8,3.3C1577.4,342.7,1577.4,343.8,1576.6,344.3z" class="st37"/></g></g><g><g><path d="M1576.6,336.4l-5.7,3.3c-0.4,0.2-0.8,0.2-1.2,0l-5.8-3.3c-0.8-0.4-0.8-1.6,0-2l5.7-3.3 c0.4-0.2,0.8-0.2,1.2,0l5.8,3.3C1577.4,334.9,1577.4,336,1576.6,336.4z" class="st37"/></g></g></g><g><g><path d="M1576.6,336.4l-5.7,3.3c-0.4,0.2-0.8,0.2-1.2,0l-5.8-3.3c-0.8-0.4-0.8-1.6,0-2l5.7-3.3 c0.4-0.2,0.8-0.2,1.2,0l5.8,3.3C1577.4,334.9,1577.4,336,1576.6,336.4z" class="st37"/></g></g></g><g><g class="st42"><g><g class="st36"><g><path d="M1920.1,381.9l-3.9,2.3c-0.2,0.1-0.5,0.2-0.8,0l-4-2.2c-0.5-0.3-0.5-1.1,0-1.4l3.9-2.3 c0.2-0.1,0.5-0.2,0.8,0l4,2.2C1920.6,380.8,1920.6,381.6,1920.1,381.9z" class="st43"/></g></g><g class="st38"><g><path d="M1920,374.4l-3.9,2.3c-0.2,0.1-0.5,0.2-0.8,0l-4-2.2c-0.5-0.3-0.5-1.1,0-1.4l3.9-2.3 c0.2-0.1,0.5-0.2,0.8,0l4,2.2C1920.5,373.3,1920.5,374.1,1920,374.4z" class="st44"/></g></g><g class="st39"><g><path d="M1919.9,366.9l-3.9,2.3c-0.2,0.1-0.5,0.2-0.8,0l-4-2.2c-0.5-0.3-0.5-1.1,0-1.4l3.9-2.3 c0.2-0.1,0.5-0.2,0.8,0l4,2.2C1920.4,365.8,1920.4,366.6,1919.9,366.9z" class="st45"/></g></g><g class="st35"><g><path d="M1919.8,359.4l-3.9,2.3c-0.2,0.1-0.5,0.1-0.8,0l-4-2.2c-0.5-0.3-0.5-1.1,0-1.4l3.9-2.3 c0.2-0.1,0.5-0.2,0.8,0l4,2.2C1920.3,358.3,1920.3,359.1,1919.8,359.4z" class="st46"/></g></g><g class="st40"><g><path d="M1919.7,351.9l-3.9,2.3c-0.2,0.1-0.5,0.1-0.8,0l-4-2.2c-0.5-0.3-0.5-1.1,0-1.4l3.9-2.3 c0.2-0.1,0.5-0.2,0.8,0l4,2.2C1920.2,350.8,1920.2,351.6,1919.7,351.9z" class="st47"/></g></g><g class="st41"><g><path d="M1919.6,344.4l-3.9,2.3c-0.2,0.1-0.5,0.1-0.8,0l-4-2.2c-0.5-0.3-0.5-1.1,0-1.4l3.9-2.3 c0.2-0.1,0.5-0.2,0.8,0l4,2.2C1920.1,343.3,1920.1,344.1,1919.6,344.4z" class="st48"/></g></g><g><g><path d="M1919.5,336.9l-3.9,2.3c-0.2,0.1-0.5,0.1-0.8,0l-4-2.2c-0.5-0.3-0.5-1.1,0-1.4l3.9-2.3 c0.2-0.1,0.5-0.2,0.8,0l4,2.2C1920,335.8,1920.1,336.6,1919.5,336.9z" class="st49"/></g></g></g></g><g class="st50"><g><path d="M1919.5,336.9l-3.9,2.3c-0.2,0.1-0.5,0.1-0.8,0l-4-2.2c-0.5-0.3-0.5-1.1,0-1.4l3.9-2.3 c0.2-0.1,0.5-0.2,0.8,0l4,2.2C1920,335.8,1920.1,336.6,1919.5,336.9z" class="st48"/></g></g></g><g><g><path d="M1847.6,398.7l2.1,1.2c0.6,0.4,1.4,0.4,2,0l2.1-1.2c1.4-0.8,1.4-2.7,0-3.5l-2.1-1.2c-0.6-0.4-1.4-0.4-2,0 l-2.1,1.2C1846.2,395.9,1846.2,397.9,1847.6,398.7z" class="st51"/><path d="M1847.6,377.4l2.1,1.2c0.6,0.4,1.4,0.4,2,0l2.1-1.2c1.4-0.8,1.4-2.7,0-3.5l-2.1-1.2c-0.6-0.4-1.4-0.4-2,0 l-2.1,1.2C1846.3,374.7,1846.3,376.6,1847.6,377.4z" class="st52"/><path d="M1847.7,356.1l2.1,1.2c0.6,0.4,1.4,0.4,2,0l2.1-1.2c1.4-0.8,1.4-2.7,0-3.5l-2.1-1.2c-0.6-0.4-1.4-0.4-2,0 l-2.1,1.2C1846.3,353.4,1846.3,355.3,1847.7,356.1z" class="st53"/><path d="M1847.7,334.9l2.1,1.2c0.6,0.4,1.4,0.4,2,0l2.1-1.2c1.4-0.8,1.4-2.7,0-3.5l-2.1-1.2c-0.6-0.4-1.4-0.4-2,0 l-2.1,1.2C1846.4,332.1,1846.4,334.1,1847.7,334.9z" class="st54"/><path d="M1847.8,313.6l2.1,1.2c0.6,0.4,1.4,0.4,2,0l2.1-1.2c1.4-0.8,1.4-2.7,0-3.5l-2.1-1.2c-0.6-0.4-1.4-0.4-2,0 l-2.1,1.2C1846.4,310.8,1846.4,312.8,1847.8,313.6z" class="st55"/><path d="M1847.8,292.3l2.1,1.2c0.6,0.4,1.4,0.4,2,0l2.1-1.2c1.4-0.8,1.4-2.7,0-3.5l-2.1-1.2c-0.6-0.4-1.4-0.4-2,0 l-2.1,1.2C1846.5,289.6,1846.5,291.5,1847.8,292.3z" class="st56"/><path d="M1847.9,271.1l2.1,1.2c0.6,0.4,1.4,0.4,2,0l2.1-1.2c1.4-0.8,1.4-2.7,0-3.5l-2.1-1.2c-0.6-0.4-1.4-0.4-2,0 l-2.1,1.2C1846.5,268.3,1846.5,270.3,1847.9,271.1z" class="st57"/></g></g><g><g><path d="M1514.1,409.5l2.1,0.7c0.6,0.2,1.4,0.2,2,0l2.1-0.7c1.4-0.5,1.4-1.6,0-2.1l-2.1-0.7c-0.6-0.2-1.4-0.2-2,0 l-2.1,0.7C1512.8,407.9,1512.8,409.1,1514.1,409.5z" class="st51"/><path d="M1514.2,396.8l2.1,0.7c0.6,0.2,1.4,0.2,2,0l2.1-0.7c1.4-0.5,1.4-1.6,0-2.1l-2.1-0.7c-0.6-0.2-1.4-0.2-2,0 l-2.1,0.7C1512.8,395.2,1512.8,396.4,1514.2,396.8z" class="st52"/><path d="M1514.2,384.2l2.1,0.7c0.6,0.2,1.4,0.2,2,0l2.1-0.7c1.4-0.5,1.4-1.6,0-2.1l-2.1-0.7c-0.6-0.2-1.4-0.2-2,0 l-2.1,0.7C1512.9,382.5,1512.9,383.7,1514.2,384.2z" class="st53"/><path d="M1514.3,371.5l2.1,0.7c0.6,0.2,1.4,0.2,2,0l2.1-0.7c1.4-0.5,1.4-1.6,0-2.1l-2.1-0.7c-0.6-0.2-1.4-0.2-2,0 l-2.1,0.7C1513,369.8,1512.9,371,1514.3,371.5z" class="st54"/><path d="M1514.3,358.8l2.1,0.7c0.6,0.2,1.4,0.2,2,0l2.1-0.7c1.4-0.5,1.4-1.6,0-2.1l-2.1-0.7c-0.6-0.2-1.4-0.2-2,0 l-2.1,0.7C1513,357.1,1513,358.3,1514.3,358.8z" class="st55"/><path d="M1514.4,346.1l2.1,0.7c0.6,0.2,1.4,0.2,2,0l2.1-0.7c1.4-0.5,1.4-1.6,0-2.1l-2.1-0.7c-0.6-0.2-1.4-0.2-2,0 l-2.1,0.7C1513.1,344.4,1513,345.6,1514.4,346.1z" class="st56"/><path d="M1514.5,333.4l2.1,0.7c0.6,0.2,1.4,0.2,2,0l2.1-0.7c1.4-0.5,1.4-1.6,0-2.1l-2.1-0.7c-0.6-0.2-1.4-0.2-2,0 l-2.1,0.7C1513.1,331.8,1513.1,332.9,1514.5,333.4z" class="st57"/></g></g><g><g><path d="M1457.9,373.7l2.1,1.2c0.6,0.4,1.4,0.4,2,0l2.1-1.2c1.4-0.8,1.4-2.7,0-3.5l-2.1-1.2c-0.6-0.4-1.4-0.4-2,0 l-2.1,1.2C1456.5,370.9,1456.5,372.9,1457.9,373.7z" class="st57"/></g></g><g><g class="st58"><path d="M1827.4,618.7c8.6,4.9,8.6,13,0.1,17.9l-73,42.5c-8.5,5-22.4,5-31,0l-76.1-43.9c-8.6-5-8.6-13-0.1-18l73-42.5 c8.5-5,22.4-4.9,31,0L1827.4,618.7z"/></g><g><path d="M1818.2,599.6c0,0.2,0,0.4-0.1,0.5c0,0.2-0.1,0.3-0.1,0.5s-0.1,0.4-0.2,0.5s-0.1,0.3-0.2,0.4 c-0.1,0.2-0.2,0.4-0.3,0.6c-0.1,0.1-0.2,0.3-0.2,0.4c-0.1,0.2-0.3,0.4-0.4,0.6c-0.1,0.1-0.2,0.2-0.3,0.4c-0.2,0.3-0.5,0.6-0.8,0.8 c-0.1,0.1-0.2,0.2-0.3,0.3c-0.2,0.2-0.4,0.3-0.6,0.5c-0.2,0.1-0.3,0.3-0.5,0.4c-0.2,0.2-0.4,0.3-0.7,0.4c-0.2,0.1-0.4,0.3-0.7,0.4 l-61.3,35.6c-0.6,0.3-1.1,0.6-1.7,0.9c-0.2,0.1-0.4,0.2-0.5,0.2c-0.5,0.2-1,0.4-1.4,0.5c-0.2,0.1-0.3,0.1-0.5,0.2 c-0.3,0.1-0.6,0.2-1,0.3c-0.2,0.1-0.5,0.1-0.7,0.2c-0.3,0.1-0.7,0.1-1,0.2c-0.2,0-0.5,0.1-0.7,0.1c-0.7,0.1-1.4,0.2-2.1,0.3 c-0.2,0-0.4,0-0.7,0.1c-0.4,0-0.8,0.1-1.2,0.1c-0.3,0-0.5,0-0.8,0s-0.7,0-1,0s-0.6,0-0.8,0c-0.3,0-0.6,0-0.9-0.1 c-0.3,0-0.6,0-0.9-0.1c-0.3,0-0.6-0.1-0.9-0.1s-0.6-0.1-0.8-0.1c-0.3,0-0.6-0.1-0.9-0.2c-0.3-0.1-0.5-0.1-0.8-0.2 c-0.4-0.1-0.8-0.2-1.1-0.3c-0.2-0.1-0.4-0.1-0.6-0.2c-0.7-0.2-1.3-0.4-2-0.7c-0.1,0-0.2-0.1-0.3-0.1c-0.9-0.3-1.7-0.7-2.5-1.2 l-63.8-36.9c-3.6-2.1-5.4-4.8-5.4-7.6l-0.1,22.5c0,2.7,1.8,5.5,5.4,7.6l63.9,36.9c0.8,0.4,1.6,0.8,2.5,1.2c0.1,0,0.1,0.1,0.2,0.1 h0.1c0.6,0.3,1.3,0.5,2,0.7c0.1,0,0.1,0,0.2,0c0.2,0,0.3,0.1,0.5,0.1c0.4,0.1,0.7,0.2,1.1,0.3c0.1,0,0.2,0.1,0.3,0.1 c0.2,0,0.3,0.1,0.5,0.1c0.3,0.1,0.6,0.1,1,0.2c0.1,0,0.3,0.1,0.4,0.1s0.3,0,0.4,0c0.3,0,0.6,0.1,0.9,0.1c0.1,0,0.3,0,0.4,0 s0.3,0,0.4,0c0.3,0,0.6,0,0.9,0.1c0.2,0,0.3,0,0.5,0c0.1,0,0.3,0,0.4,0c0.3,0,0.7,0,1,0c0.2,0,0.3,0,0.5,0c0.1,0,0.2,0,0.3,0 c0.4,0,0.8-0.1,1.2-0.1c0.2,0,0.3,0,0.5,0c0,0,0.1,0,0.2,0c0.7-0.1,1.4-0.2,2.1-0.3h0.1c0.2,0,0.4-0.1,0.6-0.1 c0.3-0.1,0.7-0.1,1-0.2c0.2-0.1,0.5-0.1,0.7-0.2c0.3-0.1,0.6-0.2,1-0.3c0.1,0,0.1,0,0.2-0.1c0.1,0,0.2-0.1,0.3-0.1 c0.5-0.2,1-0.3,1.4-0.6c0.2-0.1,0.3-0.1,0.5-0.2c0.6-0.3,1.2-0.6,1.7-0.9l61.3-35.6c0.1,0,0.1-0.1,0.2-0.1 c0.2-0.1,0.3-0.2,0.5-0.3s0.4-0.3,0.7-0.4c0.2-0.1,0.3-0.3,0.5-0.4c0.2-0.2,0.4-0.3,0.6-0.5l0.1-0.1c0.1-0.1,0.1-0.1,0.2-0.2 c0.3-0.3,0.5-0.6,0.8-0.8c0-0.1,0.1-0.1,0.2-0.2l0,0l0,0l0,0c0.1-0.1,0.1-0.1,0.1-0.2c0.1-0.2,0.3-0.4,0.4-0.6 c0.1-0.1,0.1-0.2,0.2-0.3c0,0,0-0.1,0.1-0.1c0.1-0.2,0.2-0.4,0.3-0.6c0.1-0.1,0.1-0.2,0.2-0.3v-0.1c0.1-0.2,0.1-0.4,0.2-0.6 c0-0.1,0.1-0.2,0.1-0.4v-0.1c0-0.2,0.1-0.4,0.1-0.6c0-0.1,0-0.2,0-0.4c0-0.1,0-0.1,0-0.2l0.1-22.5 C1818.2,599.3,1818.2,599.5,1818.2,599.6z" class="st27"/><g><g><path d="M1812.8,591.5c7.2,4.2,7.2,10.9,0.1,15l-61.3,35.6c-7.1,4.1-18.8,4.2-26,0l-63.8-36.9 c-7.2-4.2-7.2-10.9-0.1-15.1l61.3-35.6c7.1-4.2,18.8-4.2,26,0L1812.8,591.5z" class="st59"/></g></g><g><g><g><path d="M1791.6,595.7c5.2,3,5.2,7.8,0.1,10.8l-44.1,25.7c-5.2,3-13.5,3-18.7,0l-46-26.6c-5.2-3-5.2-7.9-0.1-10.8 l44.2-25.7c5.2-3,13.5-3,18.7,0L1791.6,595.7z" class="st27"/></g></g></g><g><g><path d="M1780.3,604.8c4.1,2.3,4.1,6,0,8.4l-34.8,19.8c-4.1,2.3-10.7,2.3-14.8,0l-36.3-20.5c-4.1-2.3-4.1-6,0-8.4 l34.8-19.8c4.1-2.3,10.7-2.3,14.8,0L1780.3,604.8z" class="st60"/></g></g></g><path d="M1818.3,495.4c0,0.2,0,0.4-0.1,0.5c0,0.2-0.1,0.3-0.1,0.5s-0.1,0.4-0.2,0.5s-0.1,0.3-0.2,0.4 c-0.1,0.2-0.2,0.4-0.3,0.6c-0.1,0.1-0.2,0.3-0.3,0.4c-0.1,0.2-0.3,0.4-0.4,0.6c-0.1,0.1-0.2,0.3-0.3,0.4c-0.2,0.3-0.5,0.5-0.8,0.8 c-0.1,0.1-0.2,0.2-0.3,0.3c-0.2,0.2-0.4,0.3-0.6,0.5c-0.2,0.1-0.3,0.3-0.5,0.4s-0.4,0.3-0.6,0.4c-0.2,0.2-0.5,0.3-0.7,0.5 l-61.3,35.6c-0.5,0.3-1.1,0.6-1.7,0.9c-0.2,0.1-0.4,0.2-0.5,0.2c-0.5,0.2-1,0.4-1.5,0.6c-0.2,0.1-0.3,0.1-0.5,0.2 c-0.3,0.1-0.6,0.2-1,0.3c-0.2,0.1-0.5,0.1-0.7,0.2c-0.3,0.1-0.6,0.1-1,0.2c-0.2,0-0.5,0.1-0.7,0.1c-0.7,0.1-1.4,0.2-2.1,0.3 c-0.2,0-0.5,0-0.7,0.1c-0.4,0-0.8,0.1-1.2,0.1c-0.3,0-0.5,0-0.8,0s-0.7,0-1,0s-0.6,0-0.8,0c-0.3,0-0.6,0-0.9-0.1 c-0.3,0-0.6,0-0.8-0.1c-0.3,0-0.6-0.1-0.9-0.1s-0.6-0.1-0.8-0.1c-0.3-0.1-0.7-0.1-1-0.2c-0.2,0-0.5-0.1-0.7-0.2 c-0.4-0.1-0.8-0.2-1.2-0.3c-0.2-0.1-0.4-0.1-0.6-0.2c-0.7-0.2-1.3-0.4-2-0.7c-0.1,0-0.2-0.1-0.3-0.1c-0.9-0.4-1.7-0.7-2.5-1.2 l-63.8-36.9c-3.6-2.1-5.4-4.8-5.4-7.6c-0.1,25-0.1,49.9-0.2,74.9c0,2.7,1.8,5.5,5.4,7.6l63.8,36.9c0.8,0.4,1.6,0.8,2.5,1.2 c0.1,0,0.1,0.1,0.2,0.1h0.1c0.6,0.3,1.3,0.5,2,0.7c0.1,0,0.1,0,0.2,0.1c0.2,0,0.3,0.1,0.5,0.1c0.4,0.1,0.7,0.2,1.1,0.3 c0.1,0,0.2,0.1,0.3,0.1c0.1,0,0.3,0.1,0.5,0.1c0.3,0.1,0.7,0.1,1,0.2c0.1,0,0.2,0,0.4,0.1c0.1,0,0.3,0,0.4,0c0.3,0,0.6,0.1,0.9,0.1 c0.1,0,0.3,0,0.4,0.1c0.1,0,0.3,0,0.4,0c0.3,0,0.6,0,0.9,0.1c0.2,0,0.3,0,0.5,0c0.1,0,0.2,0,0.4,0c0.3,0,0.7,0,1,0 c0.2,0,0.3,0,0.5,0c0.1,0,0.2,0,0.3,0c0.4,0,0.8,0,1.2-0.1c0.2,0,0.3,0,0.5,0c0.1,0,0.1,0,0.2,0c0.7-0.1,1.4-0.2,2.1-0.3h0.1 c0.2,0,0.4-0.1,0.6-0.1c0.3-0.1,0.7-0.1,1-0.2c0.2-0.1,0.5-0.1,0.7-0.2c0.3-0.1,0.6-0.2,0.9-0.3c0.1,0,0.1,0,0.2-0.1 c0.1,0,0.2-0.1,0.3-0.1c0.5-0.2,1-0.3,1.4-0.5c0.2-0.1,0.4-0.2,0.5-0.2c0.6-0.3,1.2-0.6,1.7-0.9l61.3-35.6c0.1,0,0.1-0.1,0.2-0.1 c0.2-0.1,0.3-0.2,0.5-0.3s0.5-0.3,0.7-0.4c0.2-0.1,0.4-0.3,0.5-0.4c0.2-0.2,0.4-0.3,0.5-0.5l0.1-0.1c0.1-0.1,0.1-0.1,0.2-0.2 c0.3-0.3,0.5-0.6,0.8-0.8c0-0.1,0.1-0.1,0.2-0.2c0-0.1,0.1-0.1,0.1-0.2c0.2-0.2,0.3-0.4,0.5-0.7c0.1-0.1,0.1-0.2,0.2-0.3 c0,0,0-0.1,0.1-0.1c0.1-0.2,0.2-0.4,0.3-0.6c0-0.1,0.1-0.2,0.2-0.3V572c0.1-0.2,0.1-0.4,0.2-0.6c0-0.1,0.1-0.2,0.1-0.3V571 c0-0.2,0.1-0.4,0.1-0.6c0-0.1,0-0.3,0-0.4c0-0.1,0-0.1,0-0.2c0.1-25,0.1-49.9,0.2-74.9C1818.3,495,1818.3,495.2,1818.3,495.4z" class="st61"/><g><path d="M1812.9,487.2c7.2,4.2,7.2,10.9,0.1,15l-61.3,35.6c-7.2,4.2-18.8,4.2-26,0l-63.8-36.9 c-7.2-4.2-7.2-10.9-0.1-15.1l61.3-35.6c7.2-4.2,18.8-4.2,26,0L1812.9,487.2z" class="st59"/></g><g><g><g><path d="M1791.6,489.2c5.2,3,5.2,7.8,0.1,10.8l-44.1,25.7c-5.2,3-13.5,3-18.7,0l-46-26.6c-5.2-3-5.2-7.9-0.1-10.8 l44.2-25.7c5.2-3,13.5-3,18.7,0L1791.6,489.2z" class="st27"/></g></g></g><g><g><path d="M1780.3,498.3c4.1,2.3,4.1,6,0,8.4l-34.8,19.8c-4.1,2.3-10.7,2.3-14.8,0l-36.3-20.5c-4.1-2.3-4.1-6.1,0-8.4 l34.8-19.8c4.1-2.3,10.7-2.3,14.8,0L1780.3,498.3z" class="st60"/></g></g><g><path d="M1763.8,541.5c2-1.2,3.7-0.2,3.7,2.1l0.1,42.7c0,2.3-1.6,5.2-3.7,6.4c-2,1.2-3.7,0.2-3.7-2.1l-0.1-42.7 C1760.1,545.6,1761.7,542.7,1763.8,541.5z" class="st62"/></g><g><path d="M1784.3,531.8c2-1.2,3.7-0.2,3.7,2.1l0.1,42.7c0,2.3-1.6,5.2-3.7,6.4c-2,1.2-3.7,0.2-3.7-2.1l-0.1-42.7 C1780.6,535.8,1782.3,533,1784.3,531.8z" class="st62"/></g><g><path d="M1802.8,522.5c2-1.2,3.7-0.2,3.7,2.1l0.1,42.7c0,2.3-1.6,5.2-3.7,6.4c-2,1.2-3.7,0.2-3.7-2.1l-0.1-42.7 C1799.1,526.6,1800.7,523.7,1802.8,522.5z" class="st62"/></g><g><path d="M1763.8,541.5c2-1.2,3.7-0.2,3.7,2.1l0.1,42.7c0,2.3-1.6,5.2-3.7,6.4c-2,1.2-3.7,0.2-3.7-2.1l-0.1-42.7 C1760.1,545.6,1761.7,542.7,1763.8,541.5z" class="st62"/></g><g><path d="M1784.3,531.8c2-1.2,3.7-0.2,3.7,2.1l0.1,42.7c0,2.3-1.6,5.2-3.7,6.4c-2,1.2-3.7,0.2-3.7-2.1l-0.1-42.7 C1780.6,535.8,1782.3,533,1784.3,531.8z" class="st62"/></g><g><path d="M1802.8,522.5c2-1.2,3.7-0.2,3.7,2.1l0.1,42.7c0,2.3-1.6,5.2-3.7,6.4c-2,1.2-3.7,0.2-3.7-2.1l-0.1-42.7 C1799.1,526.6,1800.7,523.7,1802.8,522.5z" class="st62"/></g><g><path d="M1763.8,541.5c2-1.2,3.7-0.2,3.7,2.1l0.1,42.7c0,2.3-1.6,5.2-3.7,6.4c-2,1.2-3.7,0.2-3.7-2.1l-0.1-42.7 C1760.1,545.6,1761.7,542.7,1763.8,541.5z" class="st62"/></g><path d="M1760.1,547.9l0.1,42.7c0,1.7,0.9,2.7,2.2,2.6c1.5-1.4,2.5-3.6,2.5-5.4l-0.1-42.7c0-1.7-0.9-2.7-2.2-2.6 C1761.1,543.9,1760.1,546,1760.1,547.9z" class="st63"/><path d="M1780.6,538.2l0.1,42.7c0,1.7,0.9,2.7,2.2,2.6c1.5-1.4,2.5-3.6,2.5-5.4l-0.1-42.7c0-1.7-0.9-2.7-2.2-2.6 C1781.7,534.2,1780.6,536.3,1780.6,538.2z" class="st63"/><path d="M1799.1,528.9l0.1,42.7c0,1.7,0.9,2.7,2.2,2.6c1.5-1.4,2.5-3.6,2.5-5.4l-0.1-42.7c0-1.7-0.9-2.7-2.2-2.6 C1800.1,524.9,1799.1,527.1,1799.1,528.9z" class="st63"/><g><g><path d="M1715.2,541.3c-2-1.2-3.7-0.2-3.7,2.1l-0.1,42.7c0,2.3,1.6,5.2,3.7,6.4c2,1.2,3.7,0.2,3.7-2.1l0.1-42.7 C1718.9,545.3,1717.2,542.5,1715.2,541.3z" class="st62"/></g><g><path d="M1694.6,531.6c-2-1.2-3.7-0.2-3.7,2.1l-0.1,42.7c0,2.3,1.6,5.2,3.7,6.4c2,1.2,3.7,0.2,3.7-2.1l0.1-42.7 C1698.3,535.6,1696.7,532.8,1694.6,531.6z" class="st62"/></g><g><path d="M1676.2,522.3c-2-1.2-3.7-0.2-3.7,2.1l-0.1,42.7c0,2.3,1.6,5.2,3.7,6.4c2,1.2,3.7,0.2,3.7-2.1l0.1-42.7 C1679.9,526.4,1678.2,523.5,1676.2,522.3z" class="st62"/></g></g><path d="M1718.7,590.4l0.1-42.7c0-1.7-0.8-3.6-2-4.9c-1.5-0.4-2.6,0.6-2.7,2.5L1714,588c0,1.7,0.8,3.6,2,5 C1717.6,593.3,1718.7,592.3,1718.7,590.4z" class="st63"/><path d="M1698.2,580.7l0.1-42.7c0-1.7-0.8-3.6-2-5c-1.5-0.4-2.7,0.6-2.7,2.5l-0.1,42.7c0,1.7,0.8,3.6,2,5 C1697.1,583.5,1698.2,582.6,1698.2,580.7z" class="st63"/><path d="M1679.8,571.4l0.1-42.7c0-1.7-0.8-3.6-2-5c-1.5-0.4-2.6,0.6-2.7,2.5l-0.1,42.7c0,1.7,0.8,3.6,2,5 C1678.6,574.3,1679.7,573.3,1679.8,571.4z" class="st63"/><g><g><path d="M1662.2,448.3c-1.9-31.2,37.1-92.5,104-69.1c38.3,13.4,47.2,35,6.6,64.7c0,0,0.4,16.6-31.5,14 c0,0-20.5-0.9-34.4,9.6C1692.2,478.6,1663,462.3,1662.2,448.3z" class="st64"/></g><g><path d="M1785,395.3c-0.1-0.1-10.6-10.8-25-11.4c-4.7-0.2-9.9,0.2-15.4,0.6c-11.9,0.9-26.3,1.4-38.1-3.6l3.1-1.4 c11.2,4.7,23.2,3.3,34.7,2.4c5.6-0.4,10.9-0.8,15.8-0.6c15.4,0.7,26.3,11.7,26.8,12.2L1785,395.3z" class="st65"/></g><g><path d="M1741.5,383.2l-2.2-0.4c0,1,0-1.1-0.1-1.4c-0.5-0.9-5-4.1-16.4-5.9l4.2-0.8c9.8,1.6,13.4,2.9,14.7,5.8 C1742.1,381.6,1741.9,382.6,1741.5,383.2z" class="st65"/></g><g><path d="M1707,402.8l-2.6-1.9c4.1-6,15.2-14.5,21.8-17.3c1.3-0.6,0.5-0.2,1.9-0.8l3.3,1.4c-1.4,0.6-2.8,1.2-4.1,1.8 C1720.7,388.8,1710.6,397.5,1707,402.8z" class="st65"/></g><g><path d="M1669.3,418.7l1.4-2.8c1-0.2,4-0.7,10.5-3.1c2.8-1,4.5-3.1,6.3-5.3c2.1-2.6,4.6-5.6,9.2-6.9 c7-1.9,11.7,2.3,13.3,4.8l-2.2,1.4c-0.1-0.2-3.5-5.5-10.3-3.7c-3.8,1-5.7,3.4-7.8,6c-1.9,2.4-4,4.8-7.5,6.1 C1675.4,417.8,1669.5,418.6,1669.3,418.7z" class="st65"/></g><g><path d="M1683.4,413.1c-6.7-12.9,12.3-23.2,13.1-23.7l1.2,2.3c-0.2,0.1-17.5,9.6-12,20.1L1683.4,413.1z" class="st65"/></g><g><path d="M1673.5,464.2c-0.5-0.5-12.1-10.1-6.9-20.5c2.3-4.7,5.5-7.8,8.1-10.3c2.8-2.7,4.8-4.7,4.7-7.4 c-0.1-4.4,3.9-8.5,8-10.4c3.9-1.8,7.7-1.5,10.2,0.8l-1.8,1.9c-2.5-2.2-6-1-7.4-0.3c-3.7,1.7-6.6,5.2-6.5,8 c0.1,3.9-2.5,6.4-5.5,9.3c-2.5,2.5-5.4,5.3-7.6,9.6c-4.3,8.6,8.9,21.6,9,21.7L1673.5,464.2z" class="st65"/></g><g><path d="M1664,432.7l1.1-3.7c6.5-5.4,15.2-1.8,15.7-1.6l-0.9,2.4C1679.7,429.8,1668.6,426.1,1664,432.7z" class="st65"/></g><g><path d="M1681.8,459.4c-11.1-10.3-10.8-20.9-10.7-21l2.7-0.6l0,0l-0.3,1.5c-0.1,0.3,3.3,11.4,9.6,16.9L1681.8,459.4 z" class="st65"/></g><path d="M1706.9,467.5c13.9-10.5,34.4-9.6,34.4-9.6c31.9,2.6,31.5-14,31.5-14c26-19,31.7-34.7,22.4-47 c-5.1-3.2-11.3-6.1-18.7-8.7c-66.9-23.4-105.9,37.9-104,69.1c0.2,2.7,1.4,5.5,3.3,8.1C1685.6,471.3,1698.6,473.8,1706.9,467.5z" class="st66"/><g><path d="M1681.8,462c-1.9-31.2,29.3-89.6,104-69.1c15.7,4.3,47.2,35,6.6,64.7c0,0,0.4,16.6-31.5,14 c0,0-20.5-0.9-34.4,9.6C1711.9,492.3,1682.7,476.1,1681.8,462z" class="st65"/></g><g><path d="M1794.7,455.9l-2.3,1.8c0-0.1,2.7-7.8,0.2-11.8c-1.3-2.1-4.3-3.1-8.8-3l-1.9,0.1 c-10.6,0.4-17.6,0.7-21.1-3.4c-2.3-2.7-2.7-6.9-1.3-13.6c2.6-12.2,2-20.6-1.8-24.9c-2.5-2.9-6.7-4.1-12.3-3.7 c-11.5,0.9-15.7,8.5-17.4,31.3c-0.3,4.7-4.6,9.8-10.8,12.9c-4.8,2.4-15.3,8.5-32-2.1l0.9-2.5c15.5,9.8,25.5,4.5,29.9,2.2 c6.1-3.1,9.1-7.6,9.3-10.7c1.5-21,5.2-32.7,19.8-33.8c6.5-0.5,11.4,1.1,14.5,4.6c4.4,5,5.2,13.9,2.4,27.1 c-1.2,5.8-1,9.4,0.7,11.4c2.6,3.1,9.5,2.9,19,2.5l1.9-0.1c5.5-0.2,9.3,1.2,11.1,4.2C1798.2,449.7,1794.9,455.5,1794.7,455.9z" class="st64"/></g><g><path d="M1752.5,457.7l-2.6-0.3c1.7-18.2,25.5-17,25.7-17l-0.2,2.6C1774.6,443.1,1754,442.1,1752.5,457.7z" class="st64"/></g><g><path d="M1763.1,420.9l-2.6-0.5c0-0.2,4.7-22,25.6-21.1l-0.1,2.6C1767.2,401,1763.2,420.1,1763.1,420.9z" class="st64"/></g><g><path d="M1787.7,415.8c-3-10.1-15.1-10.3-15.2-10.3v-2.6c0.1,0,14.2,0.2,17.7,12.2L1787.7,415.8z" class="st64"/></g><g><path d="M1709.4,463.2l-1-2.4c25.4-9.9,17.4-32.6,17.1-33.5l2.5-0.9C1728.1,426.5,1737.2,452.3,1709.4,463.2z" class="st64"/></g><g><path d="M1723.6,470.4l-1.8-1.9c7.4-6.8,1.7-18.1,1.7-18.2l2.3-1.2C1726.1,449.6,1732.4,462.3,1723.6,470.4z" class="st64"/></g><g><path d="M1729.3,416.1l-2.1-1.5c0.1-0.1,8.9-12.3,20.4-7.7l-1,2.4C1736.9,405.6,1729.3,416,1729.3,416.1z" class="st64"/></g><g><path d="M1713.6,484.9c-11.9-1.1-12.4-10.3-14.9-18.7c-0.9-3-1.5-6-3-8c-4.6-6.4-8.8-6.8-13.3-7l0.4-2.6 c0.6,0,10.2-0.9,15.2,8.4c1.3,2.4,2.2,5.4,3.2,8.5c2.6,8.4,7.5,18.2,17.7,19.1L1713.6,484.9z" class="st64"/></g><g><path d="M1717.8,440.5l-2.6-0.2c0.9-10-15.8-12.2-15.9-12.2l0.3-2.6C1700.4,425.5,1718.9,428,1717.8,440.5z" class="st64"/></g><g><path d="M1712.1,431.4l-2.2-1.4c4.8-7.8-2.8-17.8-2.9-17.9l2.1-1.6C1709.4,411,1717.8,422.1,1712.1,431.4z" class="st64"/></g><g><path d="M1789.2,442.3l-2.4-1.1c2.4-5.1,3.8-6.1,8.5-9.3c0.9-0.6,2-1.4,3.2-2.3c6.5-4.6,2-13.5,2-13.6l2.3-1.2 c2,3.8,3.9,12.2-2.8,17c-1.2,0.9-2.3,1.6-3.3,2.3C1792.3,437.2,1791.4,437.9,1789.2,442.3z" class="st64"/></g><g><path d="M1805.7,434.1c-3.7,0-6.9-2.2-7.1-2.3l1.5-2.2c0,0,3.6,2.5,6.9,1.7c1.7-0.4,4.3-3.6,5.3-5.5l-0.2,4.1 c-1.4,2.5-2.1,3.4-4.5,3.9C1807,434,1806.3,434.1,1805.7,434.1z" class="st64"/></g><g><path d="M1752.9,471.3c-0.3,0-0.5-0.2-0.7-0.5c-0.9-1,0.1-1.9,0.5-2.3l0,0c0.6-0.5,2.1-1.9,6.2-5.6 c2.1-1.9,3-3.9,2.9-6c-0.4-4.7-6-8.5-6.1-8.5l1.4-2.2c0.3,0.2,6.8,4.6,7.3,10.5c0.2,2.9-1,5.7-3.7,8.1c-3.3,3-5.1,4.7-6.2,5.6 c-0.1,0.1-0.2,0.2-0.3,0.3l0,0C1753.5,471.1,1753.2,471.3,1752.9,471.3z" class="st64"/></g><g><path d="M1774.4,462.6c-1.4-2.2-3.1-3.6-5.1-4c-3-0.6-5.7,1.1-5.7,1.1l-1.4-2.2c0.1-0.1,3.6-2.3,7.7-1.4 c2.7,0.6,4.9,2.3,6.7,5.2L1774.4,462.6z" class="st64"/></g><g><path d="M1759.1,431.6c-0.1-0.1-6.2-6.6-12.2-6.6c0,0,0,0-0.1,0c-2.1,0-3.9,0.9-5.5,2.6l-1.9-1.8 c2.1-2.3,4.6-3.4,7.4-3.5c7,0,13.9,7.1,14.2,7.4L1759.1,431.6z" class="st64"/></g><g><path d="M1781.8,425.8c-7.2-6.9-0.5-18.8-0.2-19.3l2.3,1.3c-0.1,0.1-5.9,10.6-0.2,16.1L1781.8,425.8z" class="st64"/></g><g><path d="M1705.3,478l-1.8-1.9c2-2,7.4-4.8,13.7-1.6l-1.2,2.3C1709.8,473.8,1705.5,477.9,1705.3,478z" class="st64"/></g><g><path d="M1736.5,462.6c-2.3-4.4-9.4-3.7-9.5-3.7l-0.3-2.6c0.4,0,8.9-0.9,12.1,5L1736.5,462.6z" class="st64"/></g><path d="M1681.8,462c0.9,14.1,30,30.3,44.7,19.2c13.9-10.5,34.4-9.6,34.4-9.6c31.9,2.6,31.5-14,31.5-14 c25.6-18.7,22.6-37.8,12.9-50.4c6.5,20.3-14.8,37.8-21.5,45.1c-7.3,8-16.1,6.2-27.3,5c-11.2-1.3-9.8,4.8-36.5,13.2 c-22.1,7-34.6-9-38.2-14.7C1681.7,457.9,1681.7,460,1681.8,462z" class="st67"/></g><g><path d="M1763.6,483.9c15.4,7.8,15.5,20.5,0.2,28.4c-15.3,7.8-40.3,7.8-55.7,0c-15.4-7.8-15.5-20.5-0.2-28.4 C1723.3,476.1,1748.2,476.1,1763.6,483.9z" class="st68"/><g class="st41"><path d="M1770.9,458.1c19.5,9.3,19.6,24.3,0.2,33.6c-19.4,9.3-50.9,9.3-70.3,0c-19.5-9.3-19.6-24.3-0.2-33.6 C1719.9,448.8,1751.4,448.8,1770.9,458.1z" class="st69"/></g><g class="st40"><path d="M1778.2,432.3c23.5,10.7,23.7,28.1,0.3,38.8c-23.4,10.7-61.4,10.7-85,0c-23.5-10.7-23.7-28.1-0.3-38.8 C1716.6,421.6,1754.7,421.6,1778.2,432.3z" class="st70"/></g><g class="st35"><path d="M1785.5,406.5c27.6,12.2,27.7,31.9,0.3,44c-27.4,12.2-72,12.2-99.6,0s-27.7-31.9-0.3-44 C1713.3,394.3,1757.9,394.3,1785.5,406.5z" class="st71"/></g><g class="st39"><path d="M1792.8,380.7c31.6,13.6,31.8,35.7,0.4,49.3c-31.4,13.6-82.6,13.6-114.2,0c-31.7-13.6-31.8-35.7-0.4-49.3 C1710,367.1,1761.2,367.1,1792.8,380.7z" class="st72"/></g><g class="st38"><path d="M1800.1,354.9c35.7,15,35.9,39.4,0.4,54.5c-35.5,15-93.2,15-128.9,0c-35.7-15-35.9-39.4-0.4-54.5 S1764.4,339.8,1800.1,354.9z" class="st73"/></g><g class="st36"><path d="M1807.4,329.1c39.8,16.5,40,43.2,0.5,59.7s-103.8,16.5-143.5,0c-39.8-16.5-40-43.2-0.5-59.7 S1767.6,312.6,1807.4,329.1z" class="st74"/></g></g><g><g><path d="M1611.9,652.1c-1.4,0.8-1.4,2.1,0,3c1.3,0.8,3.4,0.8,4.8,0.1c0.1,0,0.2-0.1,0.3-0.1 c0.3-0.2,0.6-0.4,0.7-0.6c0.6-0.8,0.4-1.7-0.7-2.4C1615.6,651.2,1613.3,651.2,1611.9,652.1z" class="st60"/></g><g><path d="M1617,655c-0.1,0.1-0.2,0.1-0.3,0.1l16.8,9.8l0.1-0.9h0.6l-16.5-9.6C1617.5,654.6,1617.3,654.8,1617,655z" class="st60"/></g><g><path d="M1605.8,639.8c-1.4,0.8-1.4,2.1,0,3c1.2,0.7,3.1,0.8,4.5,0.3c0.2-0.1,0.4-0.2,0.6-0.3s0.4-0.2,0.5-0.4 c0.9-0.8,0.7-1.9-0.5-2.6C1609.5,639,1607.2,639,1605.8,639.8z" class="st60"/></g><g><path d="M1633.5,664.9L1633.5,664.9L1633.5,664.9z" class="st60"/></g><g class="st75"><g><polygon points="1637.9 657.8 1638.9 658.4 1638.3 658.7 1677.6 636 1676.7 635.4" class="st60"/></g><g><path d="M1610.2,643.1l27.5,16l0.6-0.3l0.6-0.3l-1-0.6l-26.5-15.4c-0.1,0.1-0.3,0.3-0.5,0.4 C1610.7,642.9,1610.5,643,1610.2,643.1z" class="st60"/></g><g><polygon points="1633.6 664 1633.5 664.9 1633.6 664.9 1649.9 665.5 1649.9 665.5 1650 664.5 1649.7 664.5 1634.2 664" class="st60"/></g><g><polygon points="1649.7 664.5 1650 664.5 1649.9 665.5 1689.3 642.8 1688.3 642.2" class="st60"/></g><g><path d="M1669.4,676.8L1669.4,676.8L1669.4,676.8z" class="st60"/></g><g><polygon points="1669.4 676.8 1669.4 676.8 1670.3 686.3 1670.3 686.3 1671.9 686.3 1671.9 685.9 1671.1 677 1671.1 676.7" class="st60"/></g><g><polygon points="1709.7 654.6 1708.8 654.1 1669.4 676.8 1671.1 676.7 1671.1 677" class="st60"/></g><g><path d="M1637.7,682.3c0.2,0.1,0.4,0.2,0.5,0.3c0.2,0.1,0.3,0.2,0.4,0.3l60-34.7l-1-0.6L1637.7,682.3z" class="st60"/></g><g><polygon points="1681.6 683.2 1682.6 683.8 1721.4 661.4 1720.4 660.8" class="st60"/></g><g><path d="M1633.1,682.6c-1.4,0.8-1.4,2.1,0,3c1.4,0.8,3.7,0.8,5.1,0c1.3-0.7,1.4-1.8,0.5-2.7 c-0.1-0.1-0.3-0.2-0.4-0.3c-0.2-0.1-0.3-0.2-0.5-0.3C1636.3,681.8,1634.4,681.9,1633.1,682.6z" class="st60"/></g><g><path d="M1670.3,686.3L1670.3,686.3L1670.3,686.3z" class="st60"/></g><g><path d="M1671.9,685.9v0.3h-1.6l16.8,9.8c0.1-0.1,0.3-0.3,0.5-0.4c0.2-0.1,0.4-0.2,0.6-0.3L1671.9,685.9z" class="st60"/></g><g><path d="M1687.6,695.7c-0.2,0.1-0.4,0.2-0.5,0.4c-0.9,0.8-0.7,1.9,0.5,2.6c1.4,0.8,3.7,0.8,5.1,0s1.4-2.1,0-3 c-1.2-0.7-3.1-0.8-4.5-0.3C1688,695.5,1687.8,695.6,1687.6,695.7z" class="st60"/></g><g><path d="M1680.5,683.9l27.5,16c0.1-0.1,0.3-0.3,0.5-0.4c0.2-0.1,0.4-0.2,0.6-0.3l-26.5-15.4l-1-0.6L1680.5,683.9z" class="st60"/></g></g><g><path d="M1708.5,699.5c-0.2,0.1-0.4,0.2-0.5,0.4c-0.9,0.8-0.7,1.9,0.5,2.6c1.4,0.8,3.7,0.8,5.1,0s1.4-2.1,0-3 c-1.2-0.7-3.1-0.8-4.5-0.3C1708.9,699.3,1708.6,699.4,1708.5,699.5z" class="st60"/></g></g><g><circle cx="1711" cy="699.9" r="7.1" class="st76"/><circle cx="1711" cy="699.9" r="6.3" class="st77"/><circle cx="1711" cy="700" r="5.4" class="st78"/><circle cx="1710.9" cy="700.1" r="4.6" class="st79"/><path d="M1714.7,700.1c0,2.1-1.7,3.7-3.7,3.7c-2.1,0-3.8-1.7-3.8-3.7c0-2.1,1.7-3.8,3.8-3.8 C1713,696.4,1714.7,698.1,1714.7,700.1z" class="st80"/><path d="M1713.8,700.2c0,1.6-1.3,2.9-2.9,2.9s-2.9-1.3-2.9-2.9c0-1.6,1.3-2.9,2.9-2.9S1713.8,698.6,1713.8,700.2z" class="st81"/><path d="M1712.9,700.3c0,1.1-0.9,2.1-2,2.1s-2.1-0.9-2.1-2.1c0-1.1,0.9-2.1,2.1-2.1 C1712,698.2,1712.9,699.2,1712.9,700.3z" class="st60"/></g><g><path d="M1697.3,696.1c0,3.9-3.2,7.1-7.1,7.1s-7.1-3.2-7.1-7.1c0-3.9,3.2-7.1,7.1-7.1 C1694.1,688.9,1697.3,692.1,1697.3,696.1z" class="st76"/><circle cx="1690.1" cy="696.1" r="6.3" class="st77"/><circle cx="1690.1" cy="696.2" r="5.4" class="st78"/><circle cx="1690.1" cy="696.3" r="4.6" class="st79"/><circle cx="1690.1" cy="696.3" r="3.8" class="st80"/><path d="M1692.9,696.4c0,1.6-1.3,2.9-2.9,2.9s-2.9-1.3-2.9-2.9c0-1.6,1.3-2.9,2.9-2.9 C1691.7,693.5,1692.9,694.8,1692.9,696.4z" class="st81"/><path d="M1692.1,696.5c0,1.1-0.9,2.1-2,2.1s-2.1-0.9-2.1-2.1c0-1.1,0.9-2.1,2.1-2.1 C1691.2,694.4,1692.1,695.4,1692.1,696.5z" class="st60"/></g><g><circle cx="1635.7" cy="683.8" r="7.1" class="st76"/><circle cx="1635.6" cy="683.9" r="6.3" class="st77"/><circle cx="1635.6" cy="683.9" r="5.4" class="st78"/><circle cx="1635.6" cy="684" r="4.6" class="st79"/><circle cx="1635.6" cy="684.1" r="3.7" class="st80"/><path d="M1638.5,684.1c0,1.6-1.3,2.9-2.9,2.9s-2.9-1.3-2.9-2.9c0-1.6,1.3-2.9,2.9-2.9 C1637.2,681.2,1638.5,682.5,1638.5,684.1z" class="st81"/><path d="M1637.6,684.2c0,1.1-0.9,2-2,2s-2.1-0.9-2.1-2s0.9-2.1,2.1-2.1C1636.7,682.2,1637.6,683.1,1637.6,684.2z" class="st60"/></g><g><circle cx="1614.4" cy="653.5" r="7.1" class="st76"/><circle cx="1614.4" cy="653.6" r="6.3" class="st77"/><circle cx="1614.4" cy="653.7" r="5.4" class="st78"/><circle cx="1614.4" cy="653.7" r="4.6" class="st79"/><ellipse cx="1614.4" cy="653.8" class="st80" rx="3.7" ry="3.7"/><ellipse cx="1614.3" cy="653.9" class="st81" rx="2.9" ry="2.9"/><ellipse cx="1614.3" cy="654" class="st60" rx="2.1" ry="2.1"/></g><g><path d="M1615.5,641.3c0,3.9-3.2,7.1-7.1,7.1s-7.1-3.2-7.1-7.1c0-3.9,3.2-7.1,7.1-7.1S1615.5,637.4,1615.5,641.3z" class="st76"/><circle cx="1608.3" cy="641.4" r="6.3" class="st77"/><circle cx="1608.3" cy="641.4" r="5.4" class="st78"/><circle cx="1608.3" cy="641.5" r="4.6" class="st79"/><circle cx="1608.2" cy="641.6" r="3.7" class="st80"/><path d="M1611.1,641.7c0,1.6-1.3,2.9-2.9,2.9s-2.9-1.3-2.9-2.9c0-1.6,1.3-2.9,2.9-2.9 C1609.8,638.8,1611.1,640.1,1611.1,641.7z" class="st81"/><path d="M1610.2,641.7c0,1.1-0.9,2-2,2s-2.1-0.9-2.1-2s0.9-2.1,2.1-2.1C1609.3,639.7,1610.2,640.6,1610.2,641.7z" class="st60"/></g><g><path d="M1863.9,649.2c1.4,0.8,1.4,2.1,0,3c-1.3,0.8-3.4,0.8-4.8,0.1c-0.1,0-0.2-0.1-0.3-0.1 c-0.3-0.2-0.6-0.4-0.7-0.6c-0.6-0.8-0.4-1.7,0.7-2.4C1860.2,648.4,1862.5,648.4,1863.9,649.2z" class="st60"/></g><g><path d="M1858.8,652.2c0.1,0.1,0.2,0.1,0.3,0.1l-16.8,9.8l-0.1-0.9h-0.6l16.5-9.6 C1858.3,651.8,1858.5,652,1858.8,652.2z" class="st60"/></g><g><path d="M1870,637c1.4,0.8,1.4,2.1,0,3c-1.2,0.7-3.1,0.8-4.5,0.3c-0.2-0.1-0.4-0.2-0.6-0.3s-0.4-0.2-0.5-0.4 c-0.9-0.8-0.7-1.9,0.5-2.6C1866.3,636.2,1868.6,636.2,1870,637z" class="st60"/></g><g><path d="M1842.3,662.1L1842.3,662.1L1842.3,662.1z" class="st60"/></g><g><polygon points="1837.9 655 1836.9 655.5 1837.5 655.9 1798.2 633.1 1799.1 632.6" class="st60"/></g><g><path d="M1865.6,640.2l-27.5,16l-0.6-0.3l-0.6-0.3l1-0.6l26.5-15.4c0.1,0.1,0.3,0.2,0.5,0.4 C1865.1,640.1,1865.3,640.2,1865.6,640.2z" class="st60"/></g><g><polygon points="1842.2 661.1 1842.3 662.1 1842.2 662.1 1825.9 662.6 1825.9 662.6 1825.8 661.7 1826.1 661.7 1841.6 661.2" class="st60"/></g><g><polygon points="1826.1 661.7 1825.8 661.7 1825.9 662.6 1786.5 639.9 1787.5 639.4" class="st60"/></g><g><polygon points="1806.4 673.9 1806.4 674 1806.4 674" class="st60"/></g><g><polygon points="1806.4 673.9 1806.4 674 1805.5 683.4 1805.5 683.5 1803.9 683.4 1803.9 683.1 1804.7 674.1 1804.7 673.9" class="st60"/></g><g><polygon points="1766.1 651.8 1767 651.2 1806.4 673.9 1804.7 673.9 1804.7 674.1" class="st60"/></g><g><path d="M1838.1,679.5c-0.2,0.1-0.4,0.2-0.5,0.3c-0.2,0.1-0.3,0.2-0.4,0.3l-60-34.7l1-0.6L1838.1,679.5z" class="st60"/></g><g><polygon points="1794.2 680.4 1793.2 680.9 1754.4 658.6 1755.4 658" class="st60"/></g><g><path d="M1842.7,679.7c1.4,0.8,1.4,2.1,0,3c-1.4,0.8-3.7,0.8-5.1,0c-1.3-0.7-1.4-1.8-0.5-2.7 c0.1-0.1,0.3-0.2,0.4-0.3c0.2-0.1,0.3-0.2,0.5-0.3C1839.5,678.9,1841.4,679,1842.7,679.7z" class="st60"/></g><g><polygon points="1805.5 683.4 1805.5 683.4 1805.5 683.5" class="st60"/></g><g><path d="M1803.9,683.1v0.4l1.6,0.1l-16.8,9.8c-0.1-0.1-0.3-0.3-0.5-0.4c-0.2-0.1-0.4-0.2-0.6-0.3L1803.9,683.1z" class="st60"/></g><g><path d="M1788.2,692.9c0.2,0.1,0.4,0.2,0.5,0.4c0.9,0.8,0.7,1.9-0.5,2.6c-1.4,0.8-3.7,0.8-5.1,0s-1.4-2.1,0-3 c1.2-0.7,3.1-0.8,4.5-0.3C1787.8,692.6,1788,692.7,1788.2,692.9z" class="st60"/></g><g><path d="M1795.3,681.1l-27.5,16c-0.1-0.1-0.3-0.3-0.5-0.4c-0.2-0.1-0.4-0.2-0.6-0.3l26.5-15.4l0.9-0.6L1795.3,681.1z" class="st60"/></g><g><path d="M1767.3,696.6c0.2,0.1,0.4,0.2,0.5,0.4c0.9,0.8,0.7,1.9-0.5,2.6c-1.4,0.8-3.7,0.8-5.1,0s-1.4-2.1,0-3 c1.2-0.7,3.1-0.8,4.5-0.3C1766.9,696.4,1767.2,696.5,1767.3,696.6z" class="st60"/></g><g><path d="M1757.7,697c0,3.9,3.2,7.1,7.1,7.1s7.1-3.2,7.1-7.1c0-4-3.2-7.1-7.1-7.1 C1760.8,689.9,1757.7,693.1,1757.7,697z" class="st76"/><path d="M1758.5,697.1c0,3.5,2.8,6.3,6.3,6.3s6.3-2.8,6.3-6.3s-2.8-6.3-6.3-6.3S1758.5,693.6,1758.5,697.1z" class="st77"/><circle cx="1764.8" cy="697.2" r="5.4" class="st78"/><circle cx="1764.9" cy="697.2" r="4.6" class="st79"/><circle cx="1764.9" cy="697.3" r="3.7" class="st80"/><path d="M1762,697.4c0,1.6,1.3,2.9,2.9,2.9s2.9-1.3,2.9-2.9c0-1.6-1.3-2.9-2.9-2.9S1762,695.8,1762,697.4z" class="st81"/><path d="M1762.9,697.4c0,1.1,0.9,2,2,2s2.1-0.9,2.1-2s-0.9-2.1-2.1-2.1C1763.8,695.4,1762.9,696.3,1762.9,697.4z" class="st60"/></g><g><circle cx="1785.6" cy="693.2" r="7.1" class="st76"/><circle cx="1785.7" cy="693.3" r="6.3" class="st77"/><circle cx="1785.7" cy="693.4" r="5.4" class="st78"/><circle cx="1785.7" cy="693.4" r="4.6" class="st79"/><path d="M1782,693.5c0,2.1,1.7,3.7,3.7,3.7c2.1,0,3.8-1.7,3.8-3.7c0-2.1-1.7-3.8-3.8-3.8 C1783.7,689.7,1782,691.4,1782,693.5z" class="st80"/><path d="M1782.8,693.6c0,1.6,1.3,2.9,2.9,2.9s2.9-1.3,2.9-2.9c0-1.6-1.3-2.9-2.9-2.9 C1784.1,690.7,1782.8,692,1782.8,693.6z" class="st81"/><path d="M1783.7,693.6c0,1.1,0.9,2,2,2s2.1-0.9,2.1-2s-0.9-2.1-2.1-2.1C1784.6,691.6,1783.7,692.5,1783.7,693.6z" class="st60"/></g><g><circle cx="1840.1" cy="680.9" r="7.1" class="st76"/><circle cx="1840.1" cy="681" r="6.3" class="st77"/><circle cx="1840.2" cy="681.1" r="5.4" class="st78"/><circle cx="1840.2" cy="681.2" r="4.6" class="st79"/><circle cx="1840.2" cy="681.2" r="3.7" class="st80"/><circle cx="1840.2" cy="681.3" r="2.9" class="st81"/><circle cx="1840.3" cy="681.4" r="2.1" class="st60"/></g><g><circle cx="1861.4" cy="650.7" r="7.1" class="st76"/><circle cx="1861.4" cy="650.8" r="6.3" class="st77"/><circle cx="1861.4" cy="650.8" r="5.4" class="st78"/><circle cx="1861.4" cy="650.9" r="4.6" class="st79"/><circle cx="1861.4" cy="651" r="3.7" class="st80"/><path d="M1858.6,651c0,1.6,1.3,2.9,2.9,2.9s2.9-1.3,2.9-2.9c0-1.6-1.3-2.9-2.9-2.9S1858.6,649.4,1858.6,651z" class="st81"/><path d="M1859.4,651.1c0,1.1,0.9,2,2,2s2.1-0.9,2.1-2s-0.9-2.1-2.1-2.1C1860.3,649.1,1859.4,650,1859.4,651.1z" class="st60"/></g><g><path d="M1860.3,638.5c0,3.9,3.2,7.1,7.1,7.1s7.1-3.2,7.1-7.1c0-3.9-3.2-7.1-7.1-7.1 C1863.5,631.3,1860.3,634.5,1860.3,638.5z" class="st76"/><path d="M1861.2,638.5c0,3.5,2.8,6.3,6.3,6.3s6.3-2.8,6.3-6.3s-2.8-6.3-6.3-6.3S1861.2,635.1,1861.2,638.5z" class="st77"/><circle cx="1867.5" cy="638.6" r="5.4" class="st78"/><circle cx="1867.5" cy="638.7" r="4.6" class="st79"/><circle cx="1867.6" cy="638.7" r="3.8" class="st80"/><circle cx="1867.6" cy="638.8" r="2.9" class="st81"/><circle cx="1867.6" cy="638.9" r="2.1" class="st60"/></g><g><path d="M1772.4,581.8c18.3,10.6,18.4,27.7,0.2,38.2c-18.2,10.6-47.7,10.6-66,0s-18.4-27.7-0.2-38.2 C1724.5,571.2,1754.1,571.2,1772.4,581.8z" class="st27"/><g class="st41"><path d="M1777.7,569.6c21,12.1,21.1,31.7,0.2,43.8c-20.8,12.1-54.7,12.1-75.7,0s-21.1-31.7-0.2-43.8 S1756.8,557.5,1777.7,569.6z" class="st82"/></g><g class="st40"><path d="M1783.1,557.3c23.6,13.6,23.8,35.8,0.3,49.4c-23.5,13.6-61.7,13.6-85.3,0c-23.6-13.6-23.8-35.8-0.3-49.4 C1721.2,543.7,1759.4,543.7,1783.1,557.3z" class="st83"/></g><g class="st35"><path d="M1788.4,545.1c26.3,15.2,26.5,39.8,0.3,55c-26.1,15.2-68.7,15.2-95,0s-26.5-39.8-0.3-55 C1719.6,529.9,1762.1,529.9,1788.4,545.1z" class="st84"/></g><g class="st39"><path d="M1793.8,532.9c29,16.7,29.1,43.9,0.3,60.6c-28.8,16.7-75.7,16.7-104.7,0s-29.1-43.9-0.3-60.6 C1717.9,516.1,1764.8,516.1,1793.8,532.9z" class="st85"/></g><g class="st38"><path d="M1799.1,520.6c31.7,18.3,31.8,47.9,0.4,66.2c-31.5,18.3-82.6,18.3-114.3,0c-31.7-18.3-31.8-47.9-0.4-66.2 C1716.3,502.3,1767.5,502.3,1799.1,520.6z" class="st86"/></g><g class="st36"><path d="M1804.5,508.4c34.3,19.8,34.5,52,0.4,71.8s-89.6,19.8-124,0s-34.5-52-0.4-71.8 C1714.6,488.6,1770.1,488.6,1804.5,508.4z" class="st74"/></g></g><g><g><g class="st36"><path d="M1638.4,562.1c1.6,1.3,1.6,3.3,0,4.6s-4.1,1.3-5.7,0s-1.6-3.3,0-4.6S1636.8,560.8,1638.4,562.1z" class="st87"/></g></g></g><g><g><g class="st36"><path d="M1597.4,430c1.6,1.3,1.6,3.3,0,4.6c-1.6,1.3-4.1,1.3-5.7,0s-1.6-3.3,0-4.6 C1593.3,428.8,1595.8,428.8,1597.4,430z" class="st87"/></g></g></g><g><g class="st35"><path d="M1634.6,495.5c5.8,3.3,10.5,11.4,10.4,18.1c0,6.6-4.7,9.3-10.5,6s-10.4-11.4-10.4-18.1 C1624.1,494.8,1628.8,492.1,1634.6,495.5z" class="st88"/></g><g class="st35"><path d="M1634.6,499.2c4.4,2.6,8,8.8,8,13.9c0,5.1-3.6,7.1-8.1,4.6c-4.4-2.6-8-8.8-8-13.9 S1630.1,496.6,1634.6,499.2z" class="st88"/></g><g class="st35"><path d="M1634.6,502.1c3,1.7,5.5,6,5.4,9.4c0,3.5-2.5,4.9-5.5,3.1c-3-1.7-5.4-6-5.4-9.4S1631.6,500.4,1634.6,502.1z" class="st88"/></g></g><g><g class="st35"><path d="M1615.7,468.9c4.8,2.8,8.7,9.5,8.7,15s-3.9,7.7-8.7,5c-4.8-2.8-8.7-9.5-8.7-15S1610.9,466.2,1615.7,468.9z" class="st88"/></g><g class="st35"><path d="M1615.7,472c3.7,2.1,6.7,7.3,6.6,11.5c0,4.2-3,5.9-6.7,3.8s-6.7-7.3-6.6-11.5 C1609,471.6,1612,469.9,1615.7,472z" class="st88"/></g><g class="st35"><path d="M1615.7,474.4c2.5,1.4,4.5,4.9,4.5,7.8s-2,4-4.5,2.6s-4.5-4.9-4.5-7.8 C1611.2,474.2,1613.2,473,1615.7,474.4z" class="st88"/></g></g><g><path d="M1650.8,507.5c0,9.8-8,17.8-17.8,17.8s-17.8-8-17.8-17.8s8-17.8,17.8-17.8 C1642.9,489.7,1650.8,497.7,1650.8,507.5z" class="st76"/><path d="M1648.7,507.7c0,8.6-7,15.7-15.7,15.7c-8.6,0-15.7-7-15.7-15.7s7-15.7,15.7-15.7S1648.7,499,1648.7,507.7z" class="st77"/><path d="M1646.5,507.9c0,7.5-6.1,13.6-13.5,13.6c-7.5,0-13.6-6.1-13.6-13.6c0-7.5,6.1-13.6,13.6-13.6 S1646.5,500.4,1646.5,507.9z" class="st78"/><path d="M1644.4,508c0,6.3-5.1,11.4-11.4,11.4s-11.5-5.1-11.5-11.4c0-6.3,5.1-11.4,11.5-11.4 C1639.2,496.6,1644.4,501.7,1644.4,508z" class="st79"/><path d="M1642.2,508.2c0,5.1-4.2,9.3-9.3,9.3c-5.1,0-9.3-4.2-9.3-9.3c0-5.2,4.2-9.3,9.3-9.3 C1638,498.9,1642.2,503.1,1642.2,508.2z" class="st80"/><path d="M1640,508.4c0,4-3.2,7.2-7.2,7.2s-7.2-3.2-7.2-7.2s3.3-7.2,7.2-7.2C1636.8,501.2,1640,504.4,1640,508.4z" class="st81"/><path d="M1637.9,508.6c0,2.8-2.3,5.1-5.1,5.1c-2.8,0-5.1-2.3-5.1-5.1c0-2.8,2.3-5.1,5.1-5.1 S1637.9,505.8,1637.9,508.6z" class="st60"/></g><g><circle cx="1615.3" cy="479.5" r="17.8" class="st76"/><ellipse cx="1615.2" cy="479.6" class="st77" rx="15.7" ry="15.7"/><path d="M1628.7,479.8c0,7.5-6.1,13.6-13.5,13.6c-7.5,0-13.6-6.1-13.6-13.6s6.1-13.6,13.6-13.6 C1622.7,466.2,1628.7,472.3,1628.7,479.8z" class="st78"/><path d="M1626.6,480c0,6.3-5.1,11.4-11.4,11.4s-11.5-5.1-11.5-11.4s5.1-11.4,11.5-11.4 C1621.5,468.5,1626.6,473.7,1626.6,480z" class="st79"/><path d="M1624.4,480.2c0,5.1-4.2,9.3-9.3,9.3c-5.1,0-9.3-4.2-9.3-9.3c0-5.2,4.2-9.3,9.3-9.3 C1620.2,470.8,1624.4,475,1624.4,480.2z" class="st80"/><path d="M1622.3,480.3c0,4-3.2,7.2-7.2,7.2s-7.2-3.2-7.2-7.2s3.3-7.2,7.2-7.2C1619,473.1,1622.3,476.3,1622.3,480.3z" class="st81"/><path d="M1620.1,480.5c0,2.8-2.3,5.1-5.1,5.1c-2.8,0-5.1-2.3-5.1-5.1c0-2.8,2.3-5.1,5.1-5.1 C1617.8,475.4,1620.1,477.7,1620.1,480.5z" class="st60"/></g><path d="M1607.6,489.9c0,0,1.7-7.8,4.2-9c2.5-1.1,2.8-2.4,3.7-1.9c3.1,1.5,0.5,8.5-5.6,12.6 C1610,491.6,1607.2,491.7,1607.6,489.9z" class="st89"/><path d="M1600.4,506.6c0.9-0.9-0.8-1.6-0.8-1.6c0.4-2.1,0.9-5,0.1-5.2l-20.4,0.4c-3.7-0.7-7.3-0.5-9.3,1.1l0,0 c-2.6,2-1.8,6.5,2.9,7.3C1572.9,508.5,1598,509.1,1600.4,506.6z" class="st90"/><g><g><path d="M1598.3,506.6c-2.8-0.9-3.2-1.4-1.8-4.6l11.6-15.7c0,0,1.1,2.3,2,2.9c2.2,1.5,2.9,0.9,2.9,0.9 S1604.7,508.7,1598.3,506.6z" class="st90"/></g></g><path d="M1624.4,512.6c0,0,4.1-6.9,6.9-7.1c2.8-0.3,3.4-1.4,4.1-0.6c2.4,2.4-2.3,8.2-9.3,10.1 C1626.1,514.9,1623.4,514.2,1624.4,512.6z" class="st89"/><g class="st58"><g><g><path d="M1601.7,611.2c10.6,6.1,10.7,16,0.1,22.2c-10.5,6.1-27.7,6.1-38.3,0c-10.6-6.1-10.7-16-0.1-22.2 C1574,605.1,1591.1,605.1,1601.7,611.2z"/></g></g></g><g><path d="M1574.7,543.1c0,0-6.5,5.2-2.9,17.4s4.5,11.7,3.4,15.5c-0.8,2.9-3.8,8.8-3.5,13.9c0.2,4,0.9,6.4,1.8,12.9 c1.1,8.3,0.9,6.5-0.2,10c-1.2,3.9,5.8,7.4,8,7c2.2-0.3-2.7-2.1-2.4-9c0.3-6.9,4.1-26.7,6-31.1c1.9-4.3,5.1-26.9,4.6-33.8 C1589.6,545.8,1582.6,548.6,1574.7,543.1z" class="st91"/><path d="M1581.4,622.2L1581.4,622.2C1581.4,622.1,1581.4,622.2,1581.4,622.2z" class="st92"/><polygon points="1574.9 615.8 1573.9 622.8 1573.5 623.8 1574.1 615.8" class="st93"/><path d="M1573.8,611.1c0.9,0,1.8,1.3,3.3,4.4c0.6,1.3,2.6,4.5,4.4,3.4c0.2-0.1-0.4-1-0.4-1s2.8-0.6,3.1,0.3 c0.3,0.8-1.9,4.7-4.7,4.3c-2.9-0.4-3.5-3.6-4.1-4.8c-1.2-2.4-0.9,2.6-2.7-2.3C1571.8,612.9,1573.8,611.1,1573.8,611.1z" class="st92"/><path d="M1579.5,622.5c0.7,0.1,1.3,0,1.8-0.3c-0.6,0.4-2.4-0.9-3.6-3.1c-1.2-2.2-3.7-3.3-3.7-3.3l-0.5,0.5 c0.4,1.2,0.4-0.9,1.9,1.4C1576.2,618.9,1576.6,622.1,1579.5,622.5z" class="st93"/><polygon points="1572.8 614.3 1573.5 624.5 1575.2 623.7 1575.4 613.2" class="st92"/><path d="M1573.5,624.5l-1.1-0.8c0,0-0.6-9,0.3-11c0.8-1.7,1.1-1.6,1.1-1.6L1573.5,624.5z" class="st93"/></g><g><path d="M1581.1,547.2c0,0-5.6,7.2-1.4,19.1c4.2,11.9,5.1,11.4,4.2,15.3c-0.7,2.9-3.3,8.9-2.8,14 c0.4,4,1.2,6.3,2.4,12.8c1.6,8.2,1.2,6.5,0.3,10c-1,4,6.2,7,8.4,6.6c2.2-0.4-2.8-2-2.8-8.8c0-6.9,2.8-26.9,4.4-31.3 c1.7-4.4,2.1-31.5,1.3-38.4C1595.2,546.4,1589.3,552.3,1581.1,547.2z" class="st94"/><path d="M1592.5,627.5L1592.5,627.5L1592.5,627.5z" class="st92"/><polygon points="1585.7 621.4 1585 628.5 1584.7 629.5 1584.8 621.4" class="st93"/><path d="M1584.4,616.9c0.9,0,1.8,1.2,3.5,4.2c0.7,1.2,2.8,4.4,4.5,3.2c0.2-0.2-0.4-0.9-0.4-0.9s2.8-0.7,3.1,0.1 c0.3,0.8-1.6,4.8-4.5,4.5c-2.9-0.2-3.6-3.4-4.3-4.6c-1.4-2.4-0.8,2.6-2.8-2.1C1582.4,618.7,1584.4,616.9,1584.4,616.9z" class="st92"/><path d="M1590.6,627.9c0.7,0.1,1.3-0.1,1.8-0.4c-0.6,0.4-2.4-0.7-3.7-2.9c-1.3-2.2-3.9-3.2-3.9-3.2l-0.5,0.6 c0.5,1.2,0.4-0.9,2,1.3C1587.1,624.4,1587.7,627.6,1590.6,627.9z" class="st93"/><polygon points="1583.5 620 1584.7 630.2 1586.3 629.4 1586.1 618.8" class="st92"/><path d="M1584.7,630.2l-1.1-0.7c0,0-1.1-8.9-0.2-11c0.7-1.8,1-1.7,1-1.7L1584.7,630.2z" class="st93"/></g><path d="M1572.2,539.8c0,0,14.7,11.2,23.5,2c0,0,2.7,14.6,2,31.7c-0.6,14.3-2,16.8-2,16.8s-18.1,3.3-25.1-6.1 c0,0,3.5-7.5,1.4-13.8C1569.8,564,1564.4,552.3,1572.2,539.8z" class="st95"/><path d="M1595.6,590.3c0,0,1.4-2.6,2-16.8c0.7-17-2-31.7-2-31.7c-8.7,9.2-23.5-2-23.5-2c-0.7,0.6-1.3,2.8-1.9,3.5 c1.3,2.5,6.6,3.1,9.9,4.2c5.5,1.8,11.2,10,10.6,18.7c-0.4,6.3-2,18.3-2.8,24.6C1592.3,590.9,1595.6,590.3,1595.6,590.3z" class="st96"/><path d="M1589.4,505.6c0,0,8.9,4.1,8.3,8.9c-0.9,6.3-5.7,18-2,27.2c0,0-3.2,4.9-8.9,4.6c-6.7-0.3-14.5-6.6-14.5-6.6 s3.1-6.6-2.3-18.9c-2.3-5.2-5.1-20.3,2.3-21.1C1572.2,499.8,1574.2,497.6,1589.4,505.6z" class="st97"/><path d="M1589.6,499.9l-0.7,6.9c0,0-5.9,3.2-10.1-1.9l0.7-7C1579.4,498,1584.7,500.3,1589.6,499.9z" class="st94"/><path d="M1585.9,479.6c0,0,5.3,0,7.3,3.9s3.7,9.7,1.2,13c-2.6,3.5-1.3,5.6,0,6.7c1.2,1.1-13.7,6.3-20.2-3.3 C1574.2,499.9,1570,476.1,1585.9,479.6z" class="st98"/><path d="M1612.8,525.1c1.1-0.5,2.4-3,2.4-3c1.2-1.8-0.1-3-0.7-3.5l-14.9-7.7c-2.9-1.9-6.1-2.9-8.5-2.1l0,0 c-3,1-4.2,5.3-0.4,7.6C1590.8,516.5,1609.7,526.6,1612.8,525.1z" class="st90"/><g><g><path d="M1611.4,524.7c-2.1-1.5-1.7-4.7,0.1-6.5l13.8-7.5c0,0,0.4,1.9,1,2.6c1.4,1.6,2.1,1.5,2.1,1.5 S1616.1,528.1,1611.4,524.7z" class="st90"/></g></g><g><g><path d="M1554.7,607.1c-14.3,8.3-14.2,21.5-0.2,29.7c14.1,8.2,37,8.3,51.2,0c14.2-8.2,14.2-21.5,0.2-29.7 C1591.8,598.9,1568.8,598.9,1554.7,607.1z" class="st76"/></g><g class="st41"><path d="M1553.1,584.2c-15.1,8.8-15.1,22.8-0.2,31.5s39.2,8.8,54.3,0c15-8.7,15.1-22.8,0.2-31.5 S1568.1,575.5,1553.1,584.2z" class="st99"/></g><g class="st40"><path d="M1551.6,561.3c-16,9.3-15.9,24.1-0.2,33.2c15.8,9.2,41.4,9.3,57.4,0c15.9-9.2,16-24.1,0.2-33.2 C1593.2,552.1,1567.4,552.1,1551.6,561.3z" class="st100"/></g><g class="st35"><path d="M1550.1,538.4c-16.8,9.7-16.8,25.4-0.2,35c16.6,9.7,43.6,9.8,60.5,0c16.7-9.7,16.8-25.4,0.2-35 C1593.9,528.7,1566.8,528.7,1550.1,538.4z" class="st101"/></g><g class="st39"><path d="M1548.5,515.5c-17.7,10.2-17.6,26.7-0.2,36.8c17.5,10.2,45.9,10.2,63.6,0c17.6-10.1,17.7-26.7,0.2-36.8 C1594.6,505.3,1566.1,505.3,1548.5,515.5z" class="st102"/></g><g class="st38"><path d="M1547,492.6c-18.6,10.7-18.5,28-0.2,38.6c18.3,10.7,48.1,10.7,66.7,0c18.4-10.6,18.5-28,0.2-38.6 C1595.3,481.9,1565.4,481.9,1547,492.6z" class="st103"/></g></g></g><g id="Asset-1-Copy-3" transform="translate(801.000000, 796.027589)"><linearGradient id="Oval_4_" x1="-416.275" x2="-416.032" y1="-132.368" y2="-131.356" gradientTransform="matrix(8.6634 2.0937 -2.0937 8.6634 2531.0237 1223.3862)" gradientUnits="userSpaceOnUse"><stop style="stop-color:#0575e6" offset="0"/><stop style="stop-color:#021b79" offset="1"/></linearGradient><circle id="Oval_1_" cx="-798.2" cy="-790.3" r="4.6" class="st104"/></g><g id="Asset-2" transform="translate(830.000000, 746.027589)"><linearGradient id="Oval_5_" x1="-387.06" x2="-386.02" y1="9.31" y2="9.34" gradientTransform="matrix(11.923 40.7895 -40.7895 11.923 4191.5967 14967.8057)" gradientUnits="userSpaceOnUse"><stop style="stop-color:#25f0f7" offset="0"/><stop style="stop-color:#2925f7" offset="1"/></linearGradient><circle id="Oval_3_" cx="-797.5" cy="-687.8" r="22.1" class="st105"/><path id="Path_3_" d="M-776.7-680.2c-0.6,0.2-1.2,0.4-1.8,0.6c-11.7,3-23.7-4-26.8-15.7c-1.2-4.4-0.9-9,0.7-13.3 c-9.6,3.4-15.6,12.9-14.6,23s9,18.2,19.1,19.4C-790-664.9-780.3-670.7-776.7-680.2L-776.7-680.2z" class="st106"/><path id="Path_1_" d="M-781.9-692.1c-2.2,0.6-4.5-0.7-5.1-3c-0.6-2.2,0.7-4.5,3-5.1c2.2-0.6,4.5,0.7,5.1,3 C-778.3-694.9-779.7-692.7-781.9-692.1z" class="st107"/><path id="Path_2_" d="M-786.6-700.3c-1.1,0.3-2.2-0.4-2.5-1.5s0.4-2.2,1.5-2.5s2.2,0.4,2.5,1.5 C-784.8-701.8-785.4-700.6-786.6-700.3z" class="st107"/></g><ellipse id="Oval-Copy-95" cx="29.7" cy="524.2" class="st0" rx="2.1" ry="2.1" transform="matrix(1.503130e-03 -1 1 1.503130e-03 -494.4777 553.1429)"/><ellipse id="Oval-Copy-96" cx="94.4" cy="360" class="st0" rx="2.1" ry="2.1" transform="matrix(1.503130e-03 -1 1 1.503130e-03 -265.7076 453.8517)"/><ellipse id="Oval-Copy-97" cx="123.2" cy="595" class="st0" rx="2.1" ry="2.1" transform="matrix(1.503130e-03 -1 1 1.503130e-03 -472.0484 717.3357)"/><ellipse id="Oval-Copy-102" cx="141.9" cy="616.9" class="st0" rx="6.2" ry="6.2" transform="matrix(1.503130e-03 -1 1 1.503130e-03 -475.2156 757.8798)"/><ellipse id="Oval-Copy-84" cx="241.7" cy="635.8" class="st0" rx="2.1" ry="2.1" transform="matrix(1.503130e-03 -1 1 1.503130e-03 -394.4081 876.5877)"/><g id="Asset-3-Copy-2" transform="translate(1194.000000, 679.027589)"><image id="Bitmap" width="114" height="103" transform="matrix(-1.563361e-03 1.0401 -1.0401 -1.563361e-03 -1064.2727 -264.9472)" xlink:href="DF554B1C.png" style="overflow:visible;enable-background:new"/><radialGradient id="Path_4_" cx="-1175.71" cy="57.266" r=".518" gradientTransform="matrix(-2.128466e-02 14.1602 -14.1602 -2.128465e-02 -382.2914 16387.5449)" gradientUnits="userSpaceOnUse"><stop style="stop-color:#fff" offset="0"/><stop style="stop-color:#fff;stop-opacity:.87" offset=".09"/><stop style="stop-color:#fff;stop-opacity:.61" offset=".28"/><stop style="stop-color:#fff;stop-opacity:.39" offset=".46"/><stop style="stop-color:#fff;stop-opacity:.22" offset=".63"/><stop style="stop-color:#fff;stop-opacity:.1" offset=".78"/><stop style="stop-color:#fff;stop-opacity:3.000000e-02" offset=".91"/><stop style="stop-color:#fff;stop-opacity:0" offset="1"/></radialGradient><path id="Path_27_" d="M-1168.3-254.6c-3,0-5.7-1.8-6.8-4.5c-1.1-2.8-0.5-5.9,1.6-8s5.3-2.7,8-1.6 c2.8,1.1,4.5,3.8,4.5,6.8C-1160.9-257.8-1164.2-254.6-1168.3-254.6z" class="st108"/></g><g id="Asset-4" transform="translate(1596.000000, 458.027589)"><linearGradient id="Path_5_" x1="-1937.438" x2="-1936.397" y1="32.421" y2="32.421" gradientTransform="matrix(-3.727767e-02 24.8 -24.8 -3.727767e-02 -518.1579 48418.9102)" gradientUnits="userSpaceOnUse"><stop style="stop-color:#ea288d" offset="0"/><stop style="stop-color:#f05c8f" offset=".22"/><stop style="stop-color:#f69592" offset=".49"/><stop style="stop-color:#fbbe94" offset=".71"/><stop style="stop-color:#fed795" offset=".89"/><stop style="stop-color:#ffe095" offset="1"/></linearGradient><path id="Path_29_" d="M-1250,395.1c-7.1,0-12.9-5.8-12.9-12.9s5.8-12.9,12.9-12.9s12.9,5.8,12.9,12.9 c0,3.4-1.4,6.7-3.8,9.1S-1246.6,395.1-1250,395.1z" class="st109"/><g id="Group" class="st58" transform="translate(10.000000, 3.000000)"><path id="Path_30_" d="M-1253.4,381.9c-1.4,0-2.6-1.2-2.6-2.6s1.2-2.6,2.6-2.6s2.6,1.2,2.6,2.6 S-1251.9,381.9-1253.4,381.9z" class="st110"/><path id="Path_31_" d="M-1250.8,379.2c0-0.8-0.4-1.6-1-2.1c0.4,0.5,0.7,1.1,0.7,1.7c0,1-0.6,1.9-1.4,2.3 s-1.9,0.3-2.7-0.3c0.7,0.8,1.9,1.1,2.9,0.7C-1251.4,381.3-1250.7,380.3-1250.8,379.2L-1250.8,379.2z" class="st110"/></g><g id="Group_1_" class="st58" transform="translate(21.000000, 12.000000)"><path id="Path_32_" d="M-1272.2,381.8c-0.5,0-0.9-0.3-1.1-0.7c-0.2-0.4-0.1-0.9,0.2-1.3c0.3-0.3,0.8-0.4,1.3-0.3 c0.7,0.1,1.2,0.7,1.1,1.4C-1270.9,381.6-1271.6,381.9-1272.2,381.8L-1272.2,381.8z" class="st110"/><path id="Path_33_" d="M-1270.7,380.9c0.1-0.4-0.1-0.7-0.4-1c0.2,0.2,0.2,0.5,0.2,0.8c-0.2,0.7-0.9,1-1.6,0.8 c-0.3-0.1-0.6-0.2-0.8-0.4c0.2,0.3,0.6,0.5,0.9,0.6C-1271.6,381.9-1270.9,381.6-1270.7,380.9z" class="st110"/></g><g id="Group_2_" class="st58" transform="translate(18.000000, 17.000000)"><path id="Path_34_" d="M-1275,372.9c-0.4-0.3-0.6-0.9-0.4-1.3c0.4-0.4,0.9-0.4,1.4-0.1c0.3,0.2,0.4,0.5,0.4,0.8 s-0.2,0.6-0.5,0.7S-1274.8,373.1-1275,372.9L-1275,372.9z" class="st110"/><path id="Path_35_" d="M-1273.6,372.8c0.2-0.2,0.2-0.5,0.1-0.8c0,0.2,0,0.4-0.1,0.6c-0.4,0.4-0.9,0.4-1.4,0.1 c-0.2-0.1-0.3-0.3-0.4-0.5c0.1,0.3,0.2,0.5,0.5,0.7C-1274.6,373.3-1274,373.2-1273.6,372.8z" class="st110"/></g><g id="Group_3_" class="st58" transform="translate(20.000000, 6.000000)"><path id="Path_36_" d="M-1263.7,385.9c-0.2,0.2-0.6,0.2-0.9,0c-0.2-0.3-0.1-0.6,0.1-0.8c0.1-0.2,0.4-0.2,0.6-0.2 s0.4,0.2,0.4,0.5C-1263.4,385.6-1263.5,385.8-1263.7,385.9L-1263.7,385.9z" class="st110"/><path id="Path_37_" d="M-1263.6,385.1c-0.1-0.1-0.3-0.2-0.5-0.2C-1264,384.9-1263.8,385-1263.6,385.1 c0.1,0.3,0,0.7-0.2,0.9c-0.1,0.1-0.2,0.2-0.4,0.2c0.2,0,0.4-0.1,0.5-0.2s0.2-0.2,0.2-0.4C-1263.5,385.4-1263.5,385.3-1263.6,385.1 L-1263.6,385.1z" class="st110"/></g><g id="Group_4_" class="st58" transform="translate(4.000000, 19.000000)"><path id="Path_38_" d="M-1262.5,358.2c-0.6,0-1.1-0.3-1.3-0.9c-0.2-0.5-0.1-1.1,0.3-1.5s1-0.5,1.5-0.3 s0.9,0.7,0.9,1.3C-1261.1,357.5-1261.8,358.2-1262.5,358.2L-1262.5,358.2z" class="st110"/><path id="Path_39_" d="M-1261.1,356.8c0-0.4-0.2-0.8-0.5-1.1c0.2,0.3,0.4,0.6,0.4,0.9c0,0.8-0.6,1.4-1.4,1.4 c-0.3,0-0.6-0.1-0.8-0.3c0.3,0.3,0.6,0.5,1,0.5C-1261.8,358.2-1261.1,357.5-1261.1,356.8L-1261.1,356.8z" class="st110"/></g><g id="Group_5_" class="st58" transform="translate(1.000000, 7.000000)"><path id="Path_40_" d="M-1246.3,364.8c0,0.7-0.6,1.3-1.3,1.3c-0.7,0-1.3-0.6-1.3-1.3c0-0.7,0.6-1.3,1.3-1.3 C-1246.8,363.5-1246.3,364.1-1246.3,364.8L-1246.3,364.8z" class="st110"/><path id="Path_41_" d="M-1247.6,363.6c-0.4,0-0.8,0.2-1,0.5c0.2-0.2,0.6-0.3,0.9-0.3c0.7,0,1.3,0.6,1.3,1.3 c0,0.3-0.1,0.5-0.3,0.7c0.3-0.2,0.5-0.6,0.5-0.9s-0.1-0.7-0.4-0.9C-1246.9,363.7-1247.2,363.6-1247.6,363.6z" class="st110"/></g><g id="Group_6_" class="st58" transform="translate(5.000000, 10.000000)"><path id="Path_42_" d="M-1252.7,366.6c-0.1,1-1,1.8-2,1.8s-1.9-0.8-1.9-1.9c0.1-1,1-1.8,2-1.8 S-1252.8,365.5-1252.7,366.6L-1252.7,366.6z" class="st110"/><path id="Path_43_" d="M-1254.6,364.7c-0.6,0-1.2,0.2-1.6,0.7c0.4-0.3,0.8-0.4,1.3-0.4c1,0,1.9,0.8,1.9,1.9 c0,0.4-0.2,0.8-0.4,1.1c0.4-0.3,0.7-0.8,0.7-1.4c0-0.5-0.2-1-0.6-1.3S-1254.1,364.7-1254.6,364.7z" class="st110"/></g></g><path d="M-22,573.6c-58,0-105-47-105-105s47-105,105-105s105,47,105,105S36,573.6-22,573.6z M-21.8,546.3	c42.8,0,77.5-34.7,77.5-77.5S21,391.3-21.8,391.3s-77.5,34.7-77.5,77.5S-64.6,546.3-21.8,546.3z" class="st111"/><g id="Asset-4_1_" transform="translate(1596.000000, 458.027589)"><linearGradient id="Path_6_" x1="-964.504" x2="-962.133" y1="409.392" y2="409.392" gradientTransform="matrix(24.8 0 0 -24.8 23987.7988 9778.8877)" gradientUnits="userSpaceOnUse"><stop style="stop-color:#ea288d" offset="0"/><stop style="stop-color:#f05c8f" offset=".22"/><stop style="stop-color:#f69592" offset=".49"/><stop style="stop-color:#fbbe94" offset=".71"/><stop style="stop-color:#fed795" offset=".89"/><stop style="stop-color:#ffe095" offset="1"/></linearGradient><path id="Path_18_" d="M126.9-374c0,16.2-13.2,29.4-29.4,29.4S68.1-357.8,68.1-374c0-16.2,13.2-29.4,29.4-29.4 c7.8,0,15.3,3.1,20.8,8.6S126.9-381.8,126.9-374z" class="st112"/></g><g id="Asset-2_1_" transform="translate(830.000000, 746.027589)"><linearGradient id="Oval_6_" x1="-177.222" x2="-176.635" y1="121.926" y2="121.909" gradientTransform="matrix(40.7715 -11.9843 -11.9843 -40.7715 9032.6484 2212.427)" gradientUnits="userSpaceOnUse"><stop style="stop-color:#25f0f7" offset="0"/><stop style="stop-color:#2925f7" offset="1"/></linearGradient><circle id="Oval_2_" cx="357.9" cy="-638" r="12.5" class="st113"/><path id="Path_21_" d="M566.1-628.9c0,0.1,0.1,0.2,0.1,0.3c0.5,1.9-0.6,3.8-2.5,4.3c-0.7,0.2-1.4,0.1-2.1-0.1 c0.5,1.5,2.1,2.5,3.7,2.3c1.6-0.2,2.9-1.4,3.1-3.1S567.7-628.4,566.1-628.9L566.1-628.9z" class="st114"/></g><linearGradient id="Polygon-Copy-2_3_" x1="1512.941" x2="1512.757" y1="-81.822" y2="-82.697" gradientTransform="matrix(45 0 0 45 -66295 3904)" gradientUnits="userSpaceOnUse"><stop style="stop-color:#a75bff" offset="0"/><stop style="stop-color:#e2cbff" offset="1"/></linearGradient><path id="Polygon-Copy-2_1_" d="M1779.9,178.2l16.6,4.5c2,0.5,3.6,2.1,4.1,4.1l4.5,16.6c0.5,2,0,4.2-1.5,5.7	l-12.2,12.2c-1.5,1.5-3.6,2.1-5.7,1.5l-16.6-4.5c-2-0.5-3.6-2.1-4.1-4.1l-4.5-16.6c-0.5-2,0-4.2,1.5-5.7l12.2-12.2	C1775.7,178.2,1777.8,177.7,1779.9,178.2z" class="st115"/><linearGradient id="Polygon-Copy_3_" x1="1513.931" x2="1514.175" y1="-72.067" y2="-71.611" gradientTransform="matrix(109 0 0 109 -164931 7978)" gradientUnits="userSpaceOnUse"><stop style="stop-color:#ffd3a5" offset="0"/><stop style="stop-color:#fd6585" offset="1"/></linearGradient><path id="Polygon-Copy_1_" d="M99.8,123.8l18.5,5c3,0.8,5.4,3.2,6.2,6.2l5,18.5c0.8,3,0,6.3-2.2,8.5l-13.5,13.5	c-2.2,2.2-5.5,3.1-8.5,2.3l-18.5-5c-3-0.8-5.4-3.2-6.2-6.2l-5-18.5c-0.8-3,0-6.3,2.3-8.5l13.5-13.5C93.6,123.9,96.8,123,99.8,123.8z" class="st116"/><radialGradient id="Path_7_" cx="1293.826" cy="8.569" r=".905" gradientTransform="matrix(-0.1293 85.9999 -85.9999 -0.1293 1179.4744 -110537.875)" gradientUnits="userSpaceOnUse"><stop style="stop-color:#0037bf" offset="0"/><stop style="stop-color:#013dc0" offset=".11"/><stop style="stop-color:#054fc2" offset=".25"/><stop style="stop-color:#0a6bc6" offset=".42"/><stop style="stop-color:#1294cb" offset=".61"/><stop style="stop-color:#1cc6d2" offset=".81"/><stop style="stop-color:#27ffd9" offset="1"/></radialGradient><path id="Path_59_" d="M285.7,793.2c-23-9.1-34.2-35-25.2-58c9.1-23,35-34.2,58-25.2s34.2,35,25.2,58	S308.7,802.3,285.7,793.2L285.7,793.2z" class="st117"/><g id="Group_14_" class="st58" transform="translate(104.809524, 14.000000)"><path id="Path_60_" d="M215.7,754.5c-3.5-1.3-5.8-4.6-5.8-8.2c-0.1-3.6,2.1-7,5.6-8.4s7.4-0.7,10.1,1.8 s3.5,6.4,2.2,9.8C225.8,754.1,220.5,756.4,215.7,754.5L215.7,754.5z" class="st118"/><path id="Path_61_" d="M227.7,749.5c1-2.6,0.8-5.5-0.7-7.9c0.8,2,0.8,4.2,0,6.2c-1.2,3.3-4.3,5.6-7.8,5.9 s-7-1.4-8.8-4.5c1.3,3.5,4.7,5.9,8.5,6S226.2,753,227.7,749.5L227.7,749.5z" class="st118"/></g><g id="Group_15_" class="st58" transform="translate(133.809524, 55.000000)"><path id="Path_62_" d="M149.5,732.8c-1.6-1.4-1.8-3.8-0.4-5.5c1.4-1.6,3.9-1.9,5.7-0.7s2.2,3.6,1,5.4 C154.3,733.9,151.5,734.3,149.5,732.8z" class="st118"/><path id="Path_63_" d="M155.8,732.1c0.7-1.1,0.7-2.5,0.1-3.6c0.3,1,0.1,2-0.4,2.8c-1.6,1.9-4.4,2.2-6.4,0.7 c-0.9-0.5-1.6-1.3-2-2.2c0.3,1.3,1.2,2.4,2.3,3.1C151.5,734.3,154.3,734,155.8,732.1L155.8,732.1z" class="st118"/></g><g id="Group_16_" class="st58" transform="translate(116.809524, 69.000000)"><path id="Path_64_" d="M152.8,699c-0.7-1.6,0-3.5,1.5-4.3c1.6-0.8,3.5-0.2,4.4,1.3s0.4,3.5-1.1,4.5 C155.9,701.4,153.8,700.7,152.8,699L152.8,699z" class="st118"/><path id="Path_65_" d="M157.7,700.5c0.9-0.6,1.3-1.6,1.3-2.6c-0.1,0.8-0.6,1.5-1.2,2c-1.7,0.9-3.9,0.2-4.8-1.5 c-0.4-0.7-0.7-1.5-0.7-2.3c-0.2,1.1,0.1,2.1,0.7,3C153.8,700.7,155.9,701.4,157.7,700.5L157.7,700.5z" class="st118"/></g><g id="Group_17_" class="st58" transform="translate(139.809524, 35.000000)"><path id="Path_66_" d="M169.9,756.4c-0.7,0.4-1.5,0.4-2.2-0.1c-0.6-0.5-0.9-1.3-0.7-2c0.2-0.8,0.8-1.3,1.6-1.5 c0.7-0.4,1.5-0.4,2.2,0.1c0.6,0.5,0.9,1.3,0.7,2C171.3,755.7,170.6,756.3,169.9,756.4L169.9,756.4z" class="st118"/><path id="Path_67_" d="M171.4,753.9c-0.2-0.6-0.8-1-1.4-1.1c0.4,0.2,0.8,0.5,1,1c0.1,0.5,0.1,1.1-0.2,1.6 c-0.3,0.5-0.8,0.8-1.3,1s-1,0.2-1.5,0.1c0.6,0.2,1.3,0.2,1.9,0C170.9,756.1,171.6,755,171.4,753.9L171.4,753.9z" class="st118"/></g><g id="Group_18_" class="st58" transform="translate(69.809524, 57.000000)"><path id="Path_68_" d="M211.1,667.6c-2.6-1-3.8-3.9-2.8-6.5s3.9-3.8,6.5-2.8c2.6,1,3.9,3.9,2.8,6.5 C216.6,667.3,213.7,668.6,211.1,667.6z" class="st118"/><path id="Path_69_" d="M217.6,664.8c0.6-1.5,0.4-3.1-0.4-4.4c0.4,1.1,0.4,2.4,0,3.5c-0.5,1.2-1.5,2.2-2.7,2.8 c-1.2,0.5-2.6,0.6-3.9,0.1c-1-0.4-1.9-1.2-2.4-2.1c0.5,1.4,1.5,2.5,2.9,3C213.7,668.6,216.6,667.3,217.6,664.8z" class="st118"/></g><g id="Group_19_" class="st58" transform="translate(73.809524, 16.000000)"><path id="Path_70_" d="M256.7,708.7c-1.1,2.2-3.8,3.2-6.1,2.2c-2.2-1-3.1-3.6-2.1-5.7c1-2.1,3.7-3,5.9-2.1 C256.7,704.1,257.7,706.6,256.7,708.7L256.7,708.7z" class="st118"/><path id="Path_71_" d="M254,703c-1.4-0.5-2.9-0.5-4.2,0.2c1.1-0.3,2.2-0.3,3.3,0.2c1.2,0.4,2.1,1.3,2.6,2.3 c0.5,1.1,0.5,2.3,0.1,3.4c-0.4,0.9-1.1,1.6-2,2c1.3-0.3,2.3-1.2,2.8-2.4C257.6,706.5,256.4,703.9,254,703L254,703z" class="st118"/></g><g id="Group_20_" class="st58" transform="translate(81.809524, 29.000000)"><path id="Path_72_" d="M235.4,707.2c-1.5,3.4-5.5,4.9-8.9,3.4c-3.1-1.6-4.4-5.4-2.9-8.5c1.5-3.2,5.2-4.6,8.4-3.2 C235.2,700.3,236.7,704,235.4,707.2z" class="st118"/><path id="Path_73_" d="M231.5,698.5c-2-0.8-4.2-0.8-6.1,0.2c1.6-0.5,3.3-0.4,4.9,0.2c1.7,0.6,3,1.9,3.8,3.5 c0.7,1.6,0.8,3.5,0.2,5.2c-0.6,1.3-1.6,2.4-2.9,3.1c1.8-0.5,3.3-1.9,4.1-3.6C236.7,703.8,235,699.9,231.5,698.5L231.5,698.5z" class="st118"/></g><path id="Path_78_" d="M255,862.4c12.3,4.8,33.4-29.8,50.6-66c-2,0.2-4,0.2-5.9,0.1c-19.6,40.8-37.1,63.1-42.6,60.9" class="st119"/><path id="Path_74_" d="M257.1,857.4c-5.5-2.2-2.9-31.4,11.5-75.9c3.6-11,7.8-23,12.9-35.7c5.7-14.4,11.4-27.4,17-38.9	c19.2-39.6,36.2-61.2,41.7-59.1c5.4,2.1,3.1,28.5-9.4,69.2c1.5,1.3,3,2.6,4.3,4.1c11.6-36.8,18.8-73.6,7-78.3	c-12.1-4.7-33,29.2-50,65c-5.8,12.3-11.2,24.7-15.7,36c-4,10-8,21.2-11.9,32.6c-12.9,39.1-22.1,80.9-9.5,85.9" class="st119"/><path id="Path_75_" d="M297.5,796.3c-1.9-0.2-3.7-0.5-5.5-1c-7.7,15-13.8,23.9-16.7,25.6c-1-3.1,0.6-13.8,5.2-30.1	c3.1-11,7.6-24.6,13.8-40.1c5.6-14.6,12.1-28.8,19.3-42.6c6.7-12.6,12-20.1,14.6-21.6c0.9,2.8-0.3,12-4,25.8c1.6,0.9,3.2,1.9,4.7,3	c4.5-16.5,7-31.9,1.4-34.1S316,691.8,308.1,707c-9.1,17.4-17.3,37.7-18.9,41.7c-1.4,3.7-8.3,21.4-13.5,39c-5.3,18.1-8.7,36-2.6,38.4	C279.2,828.6,289,813.1,297.5,796.3z" class="st119"/></svg>