<svg xmlns="http://www.w3.org/2000/svg" xmlns:xlink="http://www.w3.org/1999/xlink" id="Layer_1" x="0" y="0" version="1.1" viewBox="0 0 1920 850" xml:space="preserve" style="enable-background:new 0 0 1920 850"><style type="text/css">.st0,.st1{opacity:.43;fill:#7202bb;enable-background:new}.st1{opacity:.54;fill:#162e66}.st2{fill:url(#SVGID_1_)}</style><path d="M1917.7,372.6C1738.5,457.2,1248.4,688,1248.4,688C567.6,996.8,5.5,514.9,5.5,514.9V-0.3	c128,0,1582.5,0,1911.1,0L1917.7,372.6z" class="st0"/><path d="M0-0.3v516.8c0,0,469.3,555.5,1066,232.4l642.9-361V-0.3C1708.9-0.3,143.4,5.2,0-0.3z" class="st1"/><linearGradient id="SVGID_1_" x1="354.413" x2="2272.113" y1="-153.127" y2="-153.127" gradientTransform="matrix(1 0 0 1 0 548.5)" gradientUnits="userSpaceOnUse"><stop offset="0" style="stop-color:#162e66"/><stop offset=".473" style="stop-color:#791a70"/><stop offset="1" style="stop-color:#5d4ee6"/></linearGradient><path d="M0-0.3v515.2c0,0,456.1,481.9,1159.4,172.5l758.3-345.6V-0.3C1917.7-0.3,8.2-0.3,0-0.3z" class="st2"/></svg>